<svg width="16" height="17" viewBox="0 0 16 17" fill="none" xmlns="http://www.w3.org/2000/svg">
<g clip-path="url(#clip0_205_44386)">
<path d="M16 8.74121C16 4.32293 12.4183 0.741211 8 0.741211C3.58172 0.741211 0 4.32293 0 8.74121C0 12.7342 2.92547 16.0439 6.75 16.644V11.0537H4.71875V8.74121H6.75V6.97871C6.75 4.97371 7.94438 3.86621 9.77172 3.86621C10.6467 3.86621 11.5625 4.02246 11.5625 4.02246V5.99121H10.5538C9.56 5.99121 9.25 6.60793 9.25 7.24121V8.74121H11.4688L11.1141 11.0537H9.25V16.644C13.0745 16.0439 16 12.7342 16 8.74121Z" fill="#737899"/>
<path d="M11.1141 11.0537L11.4688 8.74121H9.25V7.24121C9.25 6.60855 9.56 5.99121 10.5538 5.99121H11.5625V4.02246C11.5625 4.02246 10.647 3.86621 9.77172 3.86621C7.94438 3.86621 6.75 4.97371 6.75 6.97871V8.74121H4.71875V11.0537H6.75V16.644C7.5783 16.7736 8.4217 16.7736 9.25 16.644V11.0537H11.1141Z" fill="white"/>
</g>
<defs>
<clipPath id="clip0_205_44386">
<rect width="16" height="16" fill="white" transform="translate(0 0.741211)"/>
</clipPath>
</defs>
</svg>
