<svg width="16" height="17" viewBox="0 0 16 17" fill="none" xmlns="http://www.w3.org/2000/svg">
<g clip-path="url(#clip0_205_44405)">
<path d="M8 2.18184C10.1375 2.18184 10.3906 2.19121 11.2313 2.22871C12.0125 2.26309 12.4344 2.39434 12.7156 2.50371C13.0875 2.64746 13.3563 2.82246 13.6344 3.10059C13.9156 3.38184 14.0875 3.64746 14.2313 4.01934C14.3406 4.30059 14.4719 4.72559 14.5063 5.50371C14.5438 6.34746 14.5531 6.60059 14.5531 8.73496C14.5531 10.8725 14.5438 11.1256 14.5063 11.9662C14.4719 12.7475 14.3406 13.1693 14.2313 13.4506C14.0875 13.8225 13.9125 14.0912 13.6344 14.3693C13.3531 14.6506 13.0875 14.8225 12.7156 14.9662C12.4344 15.0756 12.0094 15.2068 11.2313 15.2412C10.3875 15.2787 10.1344 15.2881 8 15.2881C5.8625 15.2881 5.60938 15.2787 4.76875 15.2412C3.9875 15.2068 3.56563 15.0756 3.28438 14.9662C2.9125 14.8225 2.64375 14.6475 2.36563 14.3693C2.08438 14.0881 1.9125 13.8225 1.76875 13.4506C1.65938 13.1693 1.52813 12.7443 1.49375 11.9662C1.45625 11.1225 1.44688 10.8693 1.44688 8.73496C1.44688 6.59746 1.45625 6.34434 1.49375 5.50371C1.52813 4.72246 1.65938 4.30059 1.76875 4.01934C1.9125 3.64746 2.0875 3.37871 2.36563 3.10059C2.64688 2.81934 2.9125 2.64746 3.28438 2.50371C3.56563 2.39434 3.99063 2.26309 4.76875 2.22871C5.60938 2.19121 5.8625 2.18184 8 2.18184ZM8 0.741211C5.82813 0.741211 5.55625 0.750586 4.70313 0.788086C3.85313 0.825586 3.26875 0.963086 2.7625 1.15996C2.23438 1.36621 1.7875 1.63809 1.34375 2.08496C0.896875 2.52871 0.625 2.97559 0.41875 3.50059C0.221875 4.00996 0.084375 4.59121 0.046875 5.44121C0.009375 6.29746 0 6.56934 0 8.74121C0 10.9131 0.009375 11.185 0.046875 12.0381C0.084375 12.8881 0.221875 13.4725 0.41875 13.9787C0.625 14.5068 0.896875 14.9537 1.34375 15.3975C1.7875 15.8412 2.23438 16.1162 2.75938 16.3193C3.26875 16.5162 3.85 16.6537 4.7 16.6912C5.55313 16.7287 5.825 16.7381 7.99688 16.7381C10.1688 16.7381 10.4406 16.7287 11.2938 16.6912C12.1438 16.6537 12.7281 16.5162 13.2344 16.3193C13.7594 16.1162 14.2063 15.8412 14.65 15.3975C15.0938 14.9537 15.3688 14.5068 15.5719 13.9818C15.7688 13.4725 15.9063 12.8912 15.9438 12.0412C15.9813 11.1881 15.9906 10.9162 15.9906 8.74434C15.9906 6.57246 15.9813 6.30059 15.9438 5.44746C15.9063 4.59746 15.7688 4.01309 15.5719 3.50684C15.375 2.97559 15.1031 2.52871 14.6563 2.08496C14.2125 1.64121 13.7656 1.36621 13.2406 1.16309C12.7313 0.966211 12.15 0.828711 11.3 0.791211C10.4438 0.750586 10.1719 0.741211 8 0.741211Z" fill="#737899"/>
<path d="M8 4.63184C5.73125 4.63184 3.89062 6.47246 3.89062 8.74121C3.89062 11.01 5.73125 12.8506 8 12.8506C10.2688 12.8506 12.1094 11.01 12.1094 8.74121C12.1094 6.47246 10.2688 4.63184 8 4.63184ZM8 11.4068C6.52813 11.4068 5.33437 10.2131 5.33437 8.74121C5.33437 7.26934 6.52813 6.07559 8 6.07559C9.47188 6.07559 10.6656 7.26934 10.6656 8.74121C10.6656 10.2131 9.47188 11.4068 8 11.4068Z" fill="#737899"/>
<path d="M13.2312 4.46914C13.2312 5.00039 12.8 5.42852 12.2719 5.42852C11.7406 5.42852 11.3125 4.99727 11.3125 4.46914C11.3125 3.93789 11.7438 3.50977 12.2719 3.50977C12.8 3.50977 13.2312 3.94102 13.2312 4.46914Z" fill="#737899"/>
</g>
<defs>
<clipPath id="clip0_205_44405">
<rect width="16" height="16" fill="white" transform="translate(0 0.741211)"/>
</clipPath>
</defs>
</svg>
