<svg width="16" height="17" viewBox="0 0 16 17" fill="none" xmlns="http://www.w3.org/2000/svg">
<path d="M14 5.24121C13.2046 5.24038 12.442 4.92405 11.8796 4.36162C11.3172 3.79919 11.0008 3.03661 11 2.24121C11 2.1086 10.9473 1.98143 10.8536 1.88766C10.7598 1.79389 10.6326 1.74121 10.5 1.74121H8C7.86739 1.74121 7.74021 1.79389 7.64645 1.88766C7.55268 1.98143 7.5 2.1086 7.5 2.24121V10.4912C7.4999 10.7149 7.43978 10.9344 7.32591 11.127C7.21205 11.3195 7.04861 11.4779 6.85264 11.5858C6.65667 11.6936 6.43536 11.7469 6.21179 11.7401C5.98822 11.7332 5.77057 11.6665 5.58156 11.5469C5.39255 11.4273 5.2391 11.2592 5.13721 11.06C5.03533 10.8609 4.98873 10.6381 5.0023 10.4148C5.01587 10.1916 5.08909 9.97602 5.21434 9.7907C5.33959 9.60538 5.51227 9.45706 5.71438 9.36121C5.79987 9.32064 5.87209 9.25664 5.92265 9.17665C5.97321 9.09666 6.00003 9.00397 6 8.90934V6.24121C6.00003 6.16812 5.98404 6.09592 5.95315 6.02968C5.92226 5.96344 5.87722 5.90478 5.82121 5.85782C5.7652 5.81087 5.69958 5.77676 5.62896 5.75791C5.55835 5.73906 5.48446 5.73592 5.4125 5.74871C3.18187 6.14621 1.5 8.18496 1.5 10.4912C1.5 11.751 2.00044 12.9592 2.89124 13.85C3.78204 14.7408 4.99022 15.2412 6.25 15.2412C7.50978 15.2412 8.71796 14.7408 9.60876 13.85C10.4996 12.9592 11 11.751 11 10.4912V8.00934C11.926 8.49249 12.9555 8.74364 14 8.74121C14.1326 8.74121 14.2598 8.68853 14.3536 8.59476C14.4473 8.501 14.5 8.37382 14.5 8.24121V5.74121C14.5 5.6086 14.4473 5.48143 14.3536 5.38766C14.2598 5.29389 14.1326 5.24121 14 5.24121ZM13.5 7.71871C12.5229 7.63213 11.5873 7.2834 10.7919 6.70934C10.7171 6.65559 10.629 6.62352 10.5371 6.61668C10.4453 6.60984 10.3534 6.62849 10.2715 6.67057C10.1896 6.71265 10.1209 6.77653 10.073 6.85517C10.0251 6.9338 9.99983 7.02413 10 7.11621V10.4912C10 11.4858 9.60491 12.4396 8.90165 13.1429C8.19839 13.8461 7.24456 14.2412 6.25 14.2412C5.25544 14.2412 4.30161 13.8461 3.59835 13.1429C2.89509 12.4396 2.5 11.4858 2.5 10.4912C2.5 8.87246 3.54 7.42059 5 6.89121V8.62059C4.67678 8.83655 4.41503 9.13256 4.24025 9.47978C4.06547 9.827 3.98363 10.2136 4.00271 10.6018C4.02179 10.9901 4.14113 11.3668 4.34911 11.6952C4.55708 12.0236 4.8466 12.2925 5.18943 12.4758C5.53226 12.659 5.91672 12.7503 6.30533 12.7407C6.69394 12.7312 7.07344 12.6211 7.40685 12.4212C7.74026 12.2214 8.0162 11.9385 8.20778 11.6003C8.39936 11.262 8.50004 10.8799 8.5 10.4912V2.74121H10.0312C10.1437 3.62189 10.5453 4.44032 11.1731 5.06811C11.8009 5.69589 12.6193 6.09752 13.5 6.20996V7.71871Z" fill="#737899"/>
</svg>
