<svg width="45" height="45" viewBox="0 0 45 45" fill="none" xmlns="http://www.w3.org/2000/svg">
<path d="M14.2744 0.203712C12.4752 0.414845 10.7678 0.928909 8.90433 1.82852C6.80218 2.84746 4.55316 4.31621 3.24046 5.54629C2.67132 6.07871 2.65296 6.27148 3.08441 7.08848C4.25941 9.3375 5.81995 11.4672 7.5182 13.1471L8.76663 14.3771L7.74769 15.4053C4.83773 18.3428 3.35062 22.2166 3.52503 26.4209C3.64437 29.3217 4.45218 31.8002 6.0678 34.2328C6.97659 35.5914 8.67484 37.2988 10.0334 38.1984C11.2635 39.0154 12.6864 39.7223 13.1086 39.7223C13.6043 39.7223 13.9073 39.2266 13.7145 38.7217C13.6778 38.6482 13.2371 38.3729 12.7231 38.1158C12.2182 37.8588 11.5297 37.4824 11.1992 37.2805L10.6026 36.9225L10.6301 35.9953C10.676 34.5908 10.3364 33.2414 9.65706 32.0756C9.43675 31.6992 9.42757 31.6441 9.53773 31.2586C9.5928 31.0291 9.87737 30.3682 10.1528 29.7807C11.1901 27.6143 11.4012 26.8707 11.1992 26.1639C11.0065 25.457 10.5016 25.0439 9.31741 24.64C8.86761 24.484 8.40862 24.3096 8.29847 24.2545C8.10569 24.1535 7.60081 23.3549 6.8848 22.0146C6.66448 21.6107 6.37073 21.0967 6.21468 20.8764L5.93929 20.4725L6.32484 19.7289C6.96741 18.4988 7.70179 17.4799 8.72073 16.4334C9.24398 15.8826 9.74886 15.3961 9.84066 15.3502C9.95999 15.2859 10.116 15.3318 10.4465 15.543C11.695 16.3049 13.5401 17.0025 14.7151 17.1494L15.2567 17.2229L14.7793 17.6359C14.1918 18.15 13.4666 19.1598 13.2096 19.8482C12.9342 20.5734 12.87 21.8494 13.0811 22.5654C13.6502 24.5391 14.9262 25.457 17.0651 25.457C17.3955 25.457 18.3502 25.3561 19.1856 25.2275C20.6819 25.0072 20.7002 25.0072 20.8471 25.1816C21.1041 25.4754 21.2051 26.4301 21.2051 28.4037C21.2051 30.818 21.3336 32.5162 21.5815 33.324C21.9119 34.3705 22.6922 35.0039 23.6928 35.0039C25.7032 35.0039 28.4662 32.2775 28.6223 30.1203C28.6407 29.7807 28.5948 28.9453 28.503 28.266C28.2551 26.3383 28.402 25.6223 29.2557 24.7135C29.6321 24.3096 31.4864 22.9785 31.67 22.9785C31.7801 22.9785 31.9545 24.2453 32.0096 25.3652C32.1473 28.367 31.1559 31.5064 29.2832 33.9666C27.2821 36.6195 24.3996 38.4188 20.994 39.1531C20.2321 39.3092 19.7272 39.3551 18.2768 39.3643C16.2756 39.3734 16.2481 39.3826 16.2481 40.0711C16.2481 40.5943 16.4684 40.6953 17.827 40.7596C20.3147 40.8789 22.9217 40.3098 25.1983 39.1715C27.9797 37.767 30.4674 35.2885 31.8444 32.5346C33.5701 29.083 33.8731 24.943 32.6797 21.1885C31.7617 18.3244 29.8248 15.6256 27.383 13.808L26.7221 13.3215L27.383 12.8166C27.7502 12.532 28.1358 12.2291 28.2367 12.1281C28.4295 11.9537 28.4387 11.9537 29.118 12.4953C31.4037 14.3129 33.3223 16.9291 34.378 19.6738C35.1032 21.5465 35.4244 23.1621 35.4979 25.2734C35.6448 29.9367 33.9924 34.242 30.7703 37.5834C28.4571 39.9793 25.8225 41.5398 22.6922 42.3568C15.8809 44.1193 8.68402 41.4939 4.56234 35.7383C2.1389 32.351 1.0557 28.2477 1.46878 24.0709C1.5973 22.7307 1.56976 22.5012 1.23929 22.3543C0.90882 22.1982 0.697688 22.2166 0.459016 22.4094C0.192805 22.6297 0.00921113 24.0066 3.14414e-05 25.8426C-0.00914825 30.9098 1.99202 35.5914 5.65472 39.1348C7.15101 40.576 8.52796 41.5398 10.3914 42.4395C12.9342 43.6695 15.6239 44.2754 18.5155 44.2754C23.5459 44.2754 28.2367 42.2742 31.7617 38.6207C33.203 37.1244 34.1668 35.7475 35.0664 33.884C37.2053 29.4502 37.4991 24.227 35.8651 19.6738C35.6907 19.1965 35.5254 18.7375 35.4887 18.6549C35.4336 18.5355 35.5805 18.4529 36.2782 18.2143C39.5737 17.0668 42.1715 15.0932 43.2914 12.8625C43.8881 11.6875 44.0166 11.0174 44.0166 9.20898C44.0166 7.41895 43.9065 6.73965 43.3557 5.07812C42.9426 3.82969 41.942 1.72754 41.6942 1.59903C41.3821 1.43379 41.0424 1.47969 39.8858 1.87442C36.2965 3.07695 33.6803 5.07812 32.5512 7.47403C32.0096 8.62149 31.8994 9.16309 31.8994 10.8154C31.8994 11.6232 31.9362 12.5137 31.9729 12.7891L32.0463 13.2848L31.1834 12.4494C30.7153 11.9904 29.9809 11.3662 29.5586 11.0541C28.8518 10.5217 28.7508 10.4115 28.2 9.45684C27.1627 7.65762 25.8776 5.88594 25.4737 5.70235C25.0606 5.51875 24.5098 5.92266 24.5098 6.4C24.5098 6.47344 24.8494 6.99668 25.2717 7.56582C26.0795 8.67656 26.8965 9.925 26.8965 10.0535C26.8965 10.0902 26.8414 10.127 26.7864 10.127C26.4375 10.1086 21.2785 9.04375 21.2143 8.97031C21.0674 8.81426 15.7891 1.58984 15.7891 1.54395C15.7891 1.49805 16.45 1.56231 17.166 1.69082C18.745 1.97539 20.6176 2.91172 22.068 4.13262C22.5086 4.49981 22.8666 4.52734 23.1787 4.20605C23.5459 3.84805 23.4817 3.5084 22.9768 3.05859C21.9303 2.14062 20.1035 1.09414 18.8276 0.681057C17.469 0.240433 15.633 0.047657 14.2744 0.203712ZM16.6428 5.14238C18.0381 7.04258 19.1764 8.6123 19.158 8.62149C19.1489 8.63066 18.0565 8.42871 16.7346 8.17168L14.3295 7.69434L12.4844 5.1791C11.4746 3.80215 10.6485 2.64551 10.6485 2.60879C10.6485 2.46191 13.2739 1.69082 13.8246 1.68164C14.1 1.68164 14.2377 1.85606 16.6428 5.14238ZM10.7862 5.24336C11.5756 6.32656 12.209 7.217 12.1907 7.24453C12.1631 7.27207 7.60999 6.40918 5.53538 5.98692L5.04886 5.89512L5.30589 5.68399C6.19632 4.93125 9.0053 3.21465 9.24398 3.26055C9.30823 3.27891 9.99671 4.16934 10.7862 5.24336ZM39.9959 3.44414C39.7848 3.97656 37.2604 9.98008 37.2053 10.0811C37.1594 10.1545 36.8198 9.45684 36.269 8.09824C35.5805 6.41836 35.4336 5.96856 35.5162 5.86758C35.9293 5.37188 37.4899 4.38965 38.8301 3.77461C39.8307 3.32481 40.0785 3.25137 39.9959 3.44414ZM41.9696 5.35352C42.5112 6.92324 42.8325 8.76836 42.5846 8.86016C42.5112 8.8877 41.5932 9.27324 40.5375 9.70469C39.4819 10.1361 38.6098 10.485 38.6006 10.4758C38.5914 10.4574 39.2065 8.95195 39.9684 7.1252L41.3545 3.81133L41.5289 4.1877C41.6207 4.39883 41.8135 4.92207 41.9696 5.35352ZM35.3694 9.59453C35.911 10.9256 36.3516 12.0455 36.3516 12.0822C36.3516 12.1648 34.7451 16.0203 34.6166 16.2498C34.5157 16.4426 33.8639 14.7994 33.5426 13.5051C33.2213 12.2199 33.1387 10.3656 33.3682 9.35586C33.5151 8.69492 34.176 7.18945 34.3137 7.18945C34.3504 7.18945 34.8278 8.27266 35.3694 9.59453ZM8.61976 8.00645C10.4649 8.36446 11.9703 8.66739 11.9887 8.68575C12.0162 8.71328 8.18831 11.5039 8.04144 11.559C7.86702 11.6232 6.7012 10.1912 5.68226 8.66739C5.23245 7.99727 4.86527 7.40059 4.86527 7.35469C4.86527 7.29961 4.95706 7.28125 5.0764 7.30879C5.18655 7.33633 6.78382 7.65762 8.61976 8.00645ZM16.6612 9.57617C17.9647 9.83321 19.0479 10.0535 19.0571 10.0627C19.0662 10.0719 17.57 11.1826 15.7248 12.532L12.3742 14.9922L11.7133 14.6434C11.0616 14.3037 9.99671 13.551 9.33577 12.9635L8.98695 12.6514L11.4471 10.843C13.1637 9.58535 13.9623 9.05293 14.0909 9.08047C14.1918 9.09883 15.3485 9.32832 16.6612 9.57617ZM23.959 10.999C25.4461 11.2928 26.6762 11.5314 26.6946 11.5406C26.7313 11.5773 25.336 12.5596 24.4639 13.1104C24.0141 13.3949 23.0594 13.9182 22.3526 14.2578C20.0485 15.3777 18.3502 15.8367 16.4317 15.8459C15.3944 15.8551 13.8705 15.6807 13.9899 15.5705C14.3295 15.2309 21.0123 10.4299 21.1133 10.4482C21.1867 10.4666 22.4719 10.7145 23.959 10.999ZM42.5571 10.7879C42.4744 11.3203 42.0522 12.2842 41.6391 12.9084C41.1617 13.6244 39.8307 14.8453 38.8852 15.4328C38.0682 15.9469 36.0946 16.874 36.0028 16.7914C35.9752 16.7639 36.37 15.7541 36.8657 14.5607L37.7836 12.376L40.1153 11.3938C41.4004 10.8521 42.4928 10.4115 42.5387 10.4115C42.5846 10.4023 42.5938 10.5768 42.5571 10.7879ZM26.3457 14.7994C27.1535 15.3686 28.6407 16.8189 29.2649 17.6451C29.5403 18.0215 29.9625 18.6549 30.2012 19.068C30.6143 19.784 31.3028 21.2986 31.3028 21.4822C31.3028 21.5281 30.8162 21.8586 30.2287 22.2074C29.4576 22.6572 28.9436 23.052 28.4112 23.5752C27.0617 24.9154 26.7772 25.9895 27.1352 28.5047C27.3188 29.8082 27.2729 30.2672 26.8965 31.0107C26.3366 32.1123 25.235 33.1221 24.1793 33.4984C23.7846 33.6361 23.6653 33.6453 23.4266 33.5443C22.8116 33.2873 22.683 32.5162 22.628 28.9545C22.5729 25.8885 22.4811 25.1541 22.0588 24.4473C21.8752 24.1535 21.6641 23.9699 21.352 23.8139L20.9022 23.5844L19.1489 23.8322C17.1385 24.1168 16.652 24.1352 15.991 23.9424C15.376 23.7588 14.9446 23.3732 14.6233 22.7215C14.403 22.2717 14.3662 22.0881 14.3662 21.418C14.3662 20.7203 14.403 20.5734 14.66 20.0777C15.018 19.3984 15.6789 18.6549 16.3766 18.1592C16.6703 17.9572 17.0834 17.6543 17.3129 17.4891C17.6159 17.2596 17.8912 17.1586 18.4328 17.0576C20.4432 16.7088 23.0778 15.6715 24.8311 14.5424C25.4553 14.1477 25.4002 14.1385 26.3457 14.7994ZM7.18773 25.1449C7.48148 25.4295 7.76605 25.5855 8.35355 25.7783C9.35413 26.1088 9.79476 26.3291 9.85902 26.5402C9.93245 26.7697 9.66624 27.5225 8.96859 29.0096C7.91292 31.2494 7.86702 31.6809 8.50042 32.9109C8.93187 33.7646 9.27152 34.8938 9.27152 35.4537L9.26234 35.7842L8.5096 35.0039C7.23362 33.6729 6.24222 31.993 5.60882 30.0928C4.80101 27.6785 4.67249 25.3561 5.20491 22.8592L5.35179 22.1523L6.0678 23.4559C6.52679 24.2912 6.93987 24.9062 7.18773 25.1449Z" fill="#C81F2A"/>
</svg>
