<svg width="48" height="48" viewBox="0 0 48 48" fill="none" xmlns="http://www.w3.org/2000/svg">
<path d="M19.5528 0.58986C19.1358 0.77519 18.6632 1.22925 18.413 1.69258C18.2185 2.05397 18.2092 2.1837 18.1814 5.44551C18.1629 7.29881 18.1721 8.91119 18.2092 9.03165C18.3482 9.59691 19.1451 9.8193 19.5343 9.40231C19.7382 9.18918 19.7382 9.14285 19.7382 5.98297C19.7382 2.73042 19.766 2.38756 20.0903 2.14663C20.22 2.0447 21.9343 2.02617 28.8471 2.0169C37.2797 2.0169 37.4372 2.0169 37.6225 2.20223C37.7245 2.30416 37.8264 2.48023 37.8542 2.59143C37.882 2.71189 37.8913 5.04705 37.882 7.78067L37.8542 12.7568L37.6411 12.9699L37.4279 13.183L31.553 13.2294C25.0293 13.285 25.4371 13.2386 25.3259 13.9058C25.2795 14.1931 25.3166 14.2765 25.5575 14.5267L25.8355 14.8047H31.5993C35.343 14.8047 37.4928 14.7676 37.743 14.7028C38.3268 14.5638 38.9476 14.0634 39.2071 13.5352L39.4295 13.0904V7.57681C39.4295 2.1003 39.4295 2.06324 39.2256 1.69258C39.1144 1.48871 38.892 1.19218 38.716 1.02539C38.0766 0.40453 38.6418 0.441596 28.8008 0.441596C21.0447 0.450863 19.8308 0.469396 19.5528 0.58986Z" fill="#C81F2A"/>
<path d="M11.9358 2.85112C10.8887 3.11984 9.75816 4.00943 9.3041 4.94535L9.06317 5.43647L5.3473 5.46427L1.62216 5.49207L1.17737 5.75153C0.621381 6.07586 0.232187 6.61332 0.102456 7.21564C0.0283239 7.5307 0.000524361 11.3763 0.000524361 19.2899C0.000524361 32.4483 -0.0458082 31.568 0.732579 32.3186C0.982774 32.5595 1.31637 32.7912 1.53877 32.8561C1.82603 32.9395 3.5774 32.9673 8.60911 32.9673H15.2903V35.0986V37.2299H14.0856C12.918 37.2299 12.8624 37.2391 12.6493 37.4615C12.4918 37.6098 12.4176 37.7859 12.4176 38.0175C12.4176 38.2492 12.4918 38.4252 12.6493 38.5735L12.8717 38.8052H18.1166C23.2039 38.8052 23.3614 38.7959 23.5375 38.6198C23.9267 38.2307 23.8433 37.5449 23.3892 37.3318C23.2595 37.2762 22.6664 37.2299 22.0085 37.2299H20.8502V35.0986V32.9673H25.6039H30.3483L31.0155 33.6067C32.1553 34.7001 33.7862 35.3673 35.3245 35.3766C38.1137 35.3858 40.523 33.6437 41.394 30.975C41.5979 30.3541 41.635 30.0576 41.6442 29.168C41.6535 27.2406 41.1438 26.0174 39.8002 24.6737C38.8643 23.7286 38.0396 23.256 36.8905 22.9872L36.2418 22.8297L36.214 19.5957L36.1862 16.3617L35.9268 16.1393C35.5932 15.852 35.204 15.852 34.8704 16.1393L34.6109 16.3617L34.5831 19.605L34.5553 22.839L34.055 22.9409C32.8318 23.1911 31.3769 24.0436 30.6356 24.9517L30.2927 25.3687H15.9297H1.57583L1.59436 16.4173L1.62216 7.46584L1.88163 7.24344L2.14109 7.02104H5.5141H8.87784L8.94271 7.49364C9.03537 8.17936 9.5543 9.14308 10.101 9.65273C10.6848 10.1995 11.6022 10.635 12.3343 10.7184C14.1227 10.9315 15.6887 10.1068 16.4671 8.53149C16.7729 7.91063 16.8192 7.73457 16.847 6.97471C16.8934 5.93686 16.7451 5.34381 16.2262 4.54689C15.8092 3.89823 15.0679 3.29591 14.3451 3.01791C13.7891 2.80478 12.4825 2.71212 11.9358 2.85112ZM13.5852 4.47276C15.1327 4.93608 15.7814 6.82645 14.8362 8.15156C14.0208 9.29134 12.3898 9.48594 11.3427 8.56855C10.24 7.59557 10.1844 6.09439 11.213 5.06581C11.8802 4.39862 12.6771 4.20403 13.5852 4.47276ZM36.6959 24.5996C37.7708 24.8869 38.8828 25.7672 39.4573 26.768C40.3098 28.2784 40.2542 30.1688 39.3091 31.6329C38.3361 33.1433 36.4272 34.0144 34.7314 33.7271C32.1831 33.2916 30.3761 30.9008 30.7468 28.4545C31.1916 25.5911 33.9067 23.8305 36.6959 24.5996ZM29.3198 27.4259C29.0232 28.5008 29.0696 29.9371 29.431 31.1788L29.4866 31.392H15.7814H2.06696L1.84456 31.151C1.62216 30.9194 1.62216 30.8823 1.59436 28.9271L1.56656 26.944H15.5034H29.4495L29.3198 27.4259ZM19.2749 35.0986V37.2299H18.1166H16.9582V35.0986V32.9673H18.1166H19.2749V35.0986Z" fill="#C81F2A"/>
<path d="M16.5136 28.6399C16.2541 28.9086 16.2448 29.4368 16.4858 29.7333C16.6526 29.9465 16.736 29.9557 17.885 29.9835C18.5615 30.0021 19.2101 29.9928 19.3306 29.965C19.9236 29.8075 20.1275 29.0847 19.692 28.6584C19.4789 28.436 19.4325 28.4267 18.0889 28.4267C16.773 28.4267 16.7082 28.436 16.5136 28.6399Z" fill="#C81F2A"/>
<path d="M26.6789 4.13917C26.5306 4.28744 26.4102 4.50057 26.4102 4.61177C26.4102 4.88049 26.6511 5.31602 26.8271 5.39015C26.9105 5.41795 28.56 5.44575 30.4874 5.44575C34.4164 5.44575 34.333 5.46429 34.4442 4.77856C34.4906 4.48203 34.4535 4.39864 34.2126 4.14844L33.9346 3.87045H30.4411H26.9476L26.6789 4.13917Z" fill="#C81F2A"/>
<path d="M24.4456 6.09431C24.2881 6.18698 24.0842 6.68737 23.3521 8.6982L22.9629 9.78239L22.6293 9.68972C22.1475 9.55999 21.3228 9.65265 20.8502 9.89358C20.6278 10.0048 19.9977 10.533 19.4602 11.0612L18.4687 12.0249H14.1598C10.1288 12.0249 9.8045 12.0341 9.25777 12.2102C7.84926 12.6365 6.67242 13.8504 6.31102 15.2218C6.06083 16.1855 5.28244 21.0968 5.33804 21.3933C5.4585 22.0142 5.89403 22.5702 6.42222 22.7648C6.59828 22.8296 8.24772 22.8667 11.2315 22.8667C15.6239 22.8667 15.7999 22.8574 16.1799 22.6814C16.4023 22.5702 16.6802 22.32 16.8285 22.1068L17.0972 21.7269L17.125 19.3825L17.1528 17.0473L18.6077 17.0103C20.0533 16.9825 20.0718 16.9825 20.7019 16.6674C21.2116 16.4172 21.6193 16.0836 22.7313 14.9994C23.6672 14.0913 24.1769 13.5168 24.2973 13.2481C24.566 12.655 24.6124 12.0156 24.4271 11.3948L24.2695 10.8666L24.9645 8.96693C25.7244 6.90977 25.7985 6.52057 25.4556 6.20551C25.224 5.99238 24.7236 5.93678 24.4456 6.09431ZM22.4811 11.367C22.8703 11.6079 23.0371 12.0805 22.8703 12.4789C22.7035 12.8681 20.3776 15.055 19.8957 15.2774C19.5621 15.4257 19.2749 15.4535 17.8571 15.4535C16.5598 15.4535 16.1521 15.4813 15.9389 15.5925C15.7814 15.6759 15.6517 15.75 15.6424 15.7593C15.6331 15.7686 15.5961 17.0103 15.5683 18.5114L15.5219 21.2451L12.8717 21.2729L10.2215 21.2914L10.5273 19.4659C10.7033 18.4558 10.8423 17.5014 10.8423 17.3439C10.8423 16.6952 9.93423 16.3616 9.50797 16.8527C9.34117 17.0473 9.24851 17.4273 9.04464 18.6597C8.89638 19.5215 8.73885 20.4667 8.69251 20.7539L8.59985 21.2914H7.82146C7.18207 21.2914 7.02454 21.2636 6.97821 21.1431C6.95041 21.0597 7.11721 19.818 7.35814 18.3817C7.71953 16.2597 7.84926 15.6759 8.07166 15.2033C8.39599 14.5176 8.91491 14.045 9.6099 13.7855C10.0825 13.6095 10.3327 13.6002 14.5953 13.6002H19.0803L19.7104 13.0535C20.0625 12.7569 20.5722 12.2658 20.8502 11.9785C21.332 11.4689 21.749 11.2002 22.0548 11.1909C22.129 11.1909 22.3236 11.2743 22.4811 11.367Z" fill="#C81F2A"/>
<path d="M27.9112 7.0488C27.5035 7.47506 27.7166 8.22565 28.2819 8.36464C28.4024 8.39244 29.7367 8.41098 31.2564 8.39244L34.0271 8.36464L34.2495 8.10518C34.5368 7.76232 34.5368 7.35459 34.2403 7.06733L34.0179 6.83567H31.0618H28.1058L27.9112 7.0488Z" fill="#C81F2A"/>
<path d="M29.4959 9.81958C29.0604 10.0327 28.9955 10.7184 29.3755 11.0984C29.5515 11.2744 29.6905 11.2837 31.7848 11.2837C33.879 11.2837 34.018 11.2744 34.1941 11.0984C34.5833 10.7092 34.4999 10.0234 34.0458 9.81032C33.74 9.68059 29.7832 9.68059 29.4959 9.81958Z" fill="#C81F2A"/>
<path d="M34.0088 37.2853C30.9415 37.6745 28.3932 38.8792 26.2712 40.9456C24.7144 42.4561 23.4542 44.402 23.3708 45.4213C23.2874 46.3943 23.8249 47.321 24.6866 47.7102C25.048 47.877 25.5392 47.8862 35.3895 47.8862C45.629 47.8862 45.7216 47.8862 46.1108 47.6916C46.9633 47.2839 47.5379 46.2368 47.3989 45.3565C47.1487 43.7997 44.8228 40.8529 42.7378 39.4722C41.2459 38.4807 39.5872 37.795 37.8822 37.4614C37.1408 37.3131 34.6759 37.2019 34.0088 37.2853ZM37.5764 39.0367C39.8096 39.5 41.6814 40.473 43.2753 42.0113C44.2297 42.9379 44.6745 43.4846 45.3139 44.5503C45.8328 45.4121 45.8884 45.7642 45.5734 46.0978L45.3788 46.3109H35.3802H25.3816L25.1592 46.0793C24.8627 45.7827 24.872 45.6159 25.2148 44.958C26.0581 43.3642 27.4759 41.8074 28.9956 40.7973C30.6635 39.6854 32.0165 39.1942 34.3331 38.8606C34.8798 38.7773 36.8443 38.8884 37.5764 39.0367Z" fill="#C81F2A"/>
</svg>
