<svg width="48" height="48" viewBox="0 0 48 48" fill="none" xmlns="http://www.w3.org/2000/svg">
<path d="M16.8472 0.355259C16.1816 0.543819 15.6271 0.887665 15.1279 1.44226C14.4957 2.14104 14.2738 2.76218 14.2073 3.94901L14.1518 4.98055H11.035C7.61875 4.98055 7.59657 4.98055 7.25272 5.64606C7.10853 5.92336 7.08635 6.79961 7.08635 11.4138V16.8488H3.8919H0.697454L0.364699 17.1927L0.0430363 17.5254L0.00976081 32.1112C-0.0124228 48.1499 -0.0567901 47.1517 0.653087 47.5177C0.941474 47.6619 3.60351 47.6841 23.7241 47.6841C43.8447 47.6841 46.5067 47.6619 46.7951 47.5177C47.505 47.1517 47.4606 48.1499 47.4384 32.1112L47.4051 17.5254L47.0835 17.1927L46.7507 16.8488H43.5563H40.3729L40.3396 11.2363L40.3064 5.62387L39.9403 5.30221L39.5854 4.98055H36.4353H33.2963L33.2409 3.93792C33.1965 3.09494 33.1189 2.76218 32.8859 2.28524C32.5421 1.57536 31.7878 0.8433 31.0669 0.510544C30.5566 0.266525 30.4568 0.266525 23.9459 0.244339C18.9657 0.222157 17.2243 0.255432 16.8472 0.355259ZM29.9244 2.79546C30.1352 2.8731 30.4125 3.07276 30.5345 3.23913C30.7674 3.54971 30.7674 3.63844 30.7674 9.75003C30.7674 15.8616 30.7674 15.9504 30.5345 16.2609C30.113 16.8266 30.0021 16.8377 23.7241 16.8377C17.4461 16.8377 17.3352 16.8266 16.9137 16.2609C16.6808 15.9504 16.6808 15.8616 16.6808 9.75003C16.6808 3.63844 16.6808 3.54971 16.9137 3.23913C17.0357 3.07276 17.313 2.8731 17.5238 2.79546C18.0562 2.6069 29.392 2.6069 29.9244 2.79546ZM14.2073 11.9906L14.2406 16.5715L14.5511 17.1927C14.9061 17.9247 15.6492 18.6568 16.3813 18.9895C16.9026 19.2335 16.9692 19.2335 23.7241 19.2335C30.479 19.2335 30.5456 19.2335 31.0669 18.9895C31.7989 18.6568 32.5421 17.9247 32.897 17.1927L33.2076 16.5715L33.2409 11.9906L33.2741 7.42075H35.6034H37.9216V26.3323V45.2439H33.8176H29.7248L29.6915 40.2636L29.6582 35.2723L29.3365 34.9396L29.0038 34.5957H23.7241H18.4444L18.1116 34.9396L17.79 35.2723L17.7567 40.2636L17.7234 45.2439H13.6305H9.52655V26.3323V7.42075H11.8447H14.174L14.2073 11.9906ZM7.08635 32.2664V45.2439H4.75706H2.42778V32.2664V19.289H4.75706H7.08635V32.2664ZM45.0204 32.2664V45.2439H42.6911H40.3618V32.2664V19.289H42.6911H45.0204V32.2664ZM27.2735 41.1399V45.2439H23.7241H20.1747V41.1399V37.0359H23.7241H27.2735V41.1399Z" fill="#C81F2A"/>
<path d="M22.8811 5.35768L22.504 5.73481V7.13237V8.52994H21.1064H19.7088L19.3317 8.90707C19.0211 9.21764 18.9546 9.37292 18.9546 9.75005C18.9546 10.1272 19.0211 10.2825 19.3317 10.593L19.7088 10.9701H21.1064H22.504V12.3677V13.7653L22.8811 14.1424C23.1917 14.453 23.347 14.5195 23.7241 14.5195C24.1012 14.5195 24.2565 14.453 24.5671 14.1424L24.9442 13.7653V12.3677V10.9701H26.3417H27.7393L28.1164 10.593C28.427 10.2825 28.4936 10.1272 28.4936 9.75005C28.4936 9.37292 28.427 9.21764 28.1164 8.90707L27.7393 8.52994H26.3417H24.9442V7.13237V5.73481L24.5671 5.35768C24.2565 5.04711 24.1012 4.98056 23.7241 4.98056C23.347 4.98056 23.1917 5.04711 22.8811 5.35768Z" fill="#C81F2A"/>
<path d="M14.6289 23.0489C14.2629 23.415 14.1298 23.8143 14.2296 24.2358C14.274 24.4021 14.4514 24.6683 14.6289 24.8458L14.9395 25.1675H16.6032C18.0785 25.1675 18.2892 25.1453 18.5332 24.9456C19.1766 24.4465 19.2098 23.5148 18.6109 23.0157C18.2781 22.7384 18.2337 22.7273 16.6032 22.7273H14.9395L14.6289 23.0489Z" fill="#C81F2A"/>
<path d="M21.7278 23.0489C21.3617 23.415 21.2286 23.8143 21.3285 24.2358C21.3728 24.4021 21.5503 24.6683 21.7278 24.8458L22.0384 25.1675H23.7021C25.1773 25.1675 25.3881 25.1453 25.6321 24.9456C26.2754 24.4465 26.3087 23.5148 25.7097 23.0157C25.377 22.7384 25.3326 22.7273 23.7021 22.7273H22.0384L21.7278 23.0489Z" fill="#C81F2A"/>
<path d="M28.8264 23.0489C28.6489 23.2264 28.4715 23.4926 28.4271 23.659C28.3273 24.0805 28.4604 24.4798 28.8264 24.8458L29.137 25.1675H30.8008C32.276 25.1675 32.4867 25.1453 32.7307 24.9456C33.3741 24.4465 33.4073 23.5148 32.8084 23.0157C32.4756 22.7384 32.4313 22.7273 30.8008 22.7273H29.137L28.8264 23.0489Z" fill="#C81F2A"/>
<path d="M14.7839 28.8169C14.1073 29.2273 14.0186 30.1369 14.5953 30.7358L14.8948 31.0464H16.6251H18.3555L18.666 30.7358C19.0432 30.3254 19.143 29.7486 18.9101 29.2939C18.6106 28.706 18.2556 28.6062 16.603 28.6062C15.3607 28.6062 15.0723 28.6395 14.7839 28.8169Z" fill="#C81F2A"/>
<path d="M21.8828 28.8169C21.2062 29.2273 21.1174 30.1369 21.6942 30.7358L21.9937 31.0464H23.724H25.4543L25.7649 30.7358C26.142 30.3254 26.2419 29.7486 26.0089 29.2939C25.7095 28.706 25.3545 28.6062 23.7018 28.6062C22.4596 28.6062 22.1712 28.6395 21.8828 28.8169Z" fill="#C81F2A"/>
<path d="M28.9817 28.8169C28.3051 29.2273 28.2163 30.1369 28.7931 30.7358L29.0926 31.0464H30.8229H32.5532L32.8638 30.7358C33.2409 30.3254 33.3407 29.7486 33.1078 29.2939C32.8083 28.706 32.4534 28.6062 30.8007 28.6062C29.5584 28.6062 29.27 28.6395 28.9817 28.8169Z" fill="#C81F2A"/>
</svg>
