<svg width="44" height="38" viewBox="0 0 44 38" fill="none" xmlns="http://www.w3.org/2000/svg">
<path d="M36.7937 1.03275C36.4633 1.20716 36.3531 1.42748 36.3531 1.89564C36.3531 2.65756 36.5551 2.78607 38.2258 3.12572C38.8775 3.25424 39.4283 3.38275 39.4467 3.39193C39.465 3.41029 37.9137 4.50267 36.0135 5.81537C34.1041 7.12806 31.1574 9.15678 29.45 10.3318L26.3656 12.4523L21.2066 10.1115C17.2043 8.29388 15.9742 7.77064 15.6896 7.77064C15.3592 7.77064 14.3953 8.32142 7.78593 12.287C2.10371 15.6927 0.231049 16.8677 0.130073 17.0513C-0.0810599 17.4736 -0.0351615 17.9142 0.267768 18.2538C0.50644 18.5201 0.589057 18.5568 0.983784 18.5476C1.39687 18.5476 1.81914 18.3089 8.49277 14.2974C12.385 11.9566 15.6254 10.0197 15.708 10.0013C15.7906 9.97377 18.1865 11.0111 21.023 12.3054C24.4654 13.866 26.2922 14.6554 26.4941 14.6554C26.8521 14.6554 26.6686 14.7747 34.7467 9.20267C37.932 7.00873 40.5391 5.25541 40.5574 5.30131C40.5758 5.33802 40.484 5.90717 40.3463 6.5681C40.126 7.66049 40.1168 7.77982 40.2453 8.08275C40.3922 8.43158 40.7869 8.68861 41.1725 8.68861C41.4846 8.68861 41.9252 8.45912 42.0445 8.22963C42.173 7.99095 43.1461 3.15326 43.1461 2.75853C43.1461 2.4097 42.8799 2.0517 42.5311 1.914C42.2006 1.78549 37.5648 0.885876 37.2619 0.885876C37.1426 0.895056 36.9314 0.950134 36.7937 1.03275Z" fill="#C81F2A"/>
<path d="M34.563 11.7731C34.1224 11.9384 33.7368 12.2872 33.4981 12.7462C33.3329 13.0767 33.3237 13.4438 33.3237 24.1106V35.1263H32.3599H31.396V27.5714C31.396 19.1169 31.4327 19.6218 30.7259 18.9976C30.1843 18.5202 29.9731 18.4927 26.7419 18.5294L23.7952 18.5569L23.3913 18.8323C23.1802 18.9884 22.8956 19.3005 22.7671 19.5208L22.5376 19.9339L22.5101 27.5255L22.4917 35.1263H21.5737H20.6558L20.6374 26.0567L20.6099 16.9964L20.3804 16.5833C20.2519 16.363 19.9673 16.0509 19.7562 15.8948L19.3522 15.6194L16.4056 15.5919C13.1743 15.5552 12.9632 15.5827 12.4216 16.0601C11.7056 16.6843 11.7515 15.9958 11.7515 26.1026V35.1263H10.7876H9.82373L9.80537 28.9024L9.77783 22.6694L9.51162 22.2931C9.34639 22.0544 9.08018 21.8249 8.78643 21.678L8.31826 21.4485H5.41748H2.5167L2.04854 21.678C1.75479 21.8249 1.48857 22.0544 1.32334 22.2931L1.05713 22.6694L1.02959 28.8841L1.01123 35.0896L0.689941 35.2089C0.276855 35.3558 0.00146484 35.7138 0.00146484 36.1085C0.00146484 36.4849 0.212598 36.9255 0.45127 37.054C0.699121 37.1825 42.4483 37.1825 42.6962 37.054C42.9349 36.9255 43.146 36.4849 43.146 36.1085C43.146 35.7138 42.8706 35.3558 42.4575 35.2089L42.1362 35.0896V24.0923C42.1362 13.4438 42.127 13.0767 41.9618 12.7462C41.7231 12.278 41.3376 11.9384 40.8603 11.764C40.2911 11.5712 35.1138 11.5712 34.563 11.7731ZM40.1167 24.386V35.1263H37.73H35.3433V24.386V13.6458H37.73H40.1167V24.386ZM18.6362 26.3597V35.1263H16.2036H13.771V26.3597V17.5931H16.2036H18.6362V26.3597ZM29.3765 27.8284V35.1263H26.9438H24.5112V27.8284V20.5306H26.9438H29.3765V27.8284ZM7.8042 29.2972V35.1263H5.41748H3.03076V29.2972V23.4681H5.41748H7.8042V29.2972Z" fill="#C81F2A"/>
</svg>
