<svg width="45" height="44" viewBox="0 0 45 44" fill="none" xmlns="http://www.w3.org/2000/svg">
<path d="M15.4161 0.423733C15.003 0.607327 14.7092 0.882717 14.4889 1.30498C14.3237 1.62627 14.3145 1.92002 14.3145 7.33604V13.0274L14.0667 13.1651C13.7821 13.312 13.112 13.9821 12.9559 14.2759C12.8733 14.4136 12.8549 13.5323 12.8458 10.8702C12.8458 8.4376 12.809 7.17998 12.7448 6.96885C12.5704 6.45479 12.2032 6.05088 11.7075 5.82139C11.2485 5.60107 11.2026 5.60107 8.26509 5.60107C6.30064 5.60107 5.17153 5.63779 4.94204 5.70205C4.4647 5.84893 3.95064 6.28955 3.74868 6.73936C3.58345 7.09737 3.57427 7.54717 3.57427 15.6253V24.144H1.88521C0.00337011 24.144 -0.0425283 24.1532 0.0125498 24.7591C0.0584483 25.2823 0.232862 25.3374 2.04126 25.3374H3.57427V26.2737C3.57427 27.4396 3.75786 27.8802 4.38208 28.2841L4.80435 28.5503H6.59439C7.93462 28.5595 8.44868 28.587 8.61392 28.6788C8.77915 28.7706 8.96274 29.1103 9.29321 29.8905C9.53189 30.4964 9.76138 31.0747 9.78892 31.194C9.83482 31.3776 9.64204 31.6163 8.60474 32.6628C7.02583 34.2601 6.84224 34.6089 7.07173 35.5544C7.17271 36.0042 7.29204 36.1419 8.88013 37.7483C10.918 39.8138 11.276 40.0249 12.2674 39.7403C12.6438 39.6394 12.9008 39.4282 14.0667 38.2991C15.1774 37.2067 15.4528 36.9864 15.6272 37.0231C15.7374 37.0507 16.3249 37.2802 16.9307 37.528C17.7385 37.8585 18.0598 38.0421 18.1424 38.1981C18.225 38.3542 18.2618 38.9692 18.2618 40.2177V42.0077L18.528 42.43C18.7024 42.7054 18.9319 42.9073 19.1981 43.045C19.5836 43.2286 19.7397 43.2378 22.1172 43.2378C24.4948 43.2378 24.6508 43.2286 25.0364 43.045C25.3026 42.9073 25.5321 42.7054 25.7065 42.43L25.9727 42.0077V40.2177C25.9727 38.9601 26.0094 38.3542 26.092 38.189C26.1747 38.0329 26.395 37.8952 26.8448 37.73C27.2028 37.6015 27.726 37.3812 28.029 37.2435C28.3227 37.1058 28.6256 36.9956 28.6991 36.9956C28.7817 36.9956 29.4426 37.5831 30.1862 38.3083C31.3336 39.4282 31.5907 39.6394 31.967 39.7403C32.9584 40.0249 33.3165 39.8138 35.3543 37.7483C36.9424 36.1419 37.0618 36.0042 37.1627 35.5544C37.3922 34.6089 37.2086 34.2601 35.6297 32.6628C34.5924 31.6163 34.3997 31.3776 34.4456 31.194C34.4731 31.0747 34.7026 30.4872 34.9504 29.8813C35.2809 29.0735 35.4645 28.7522 35.6206 28.6696C35.7766 28.587 36.3917 28.5503 37.6401 28.5503H39.4301L39.8524 28.2841C40.4766 27.8802 40.6602 27.4396 40.6602 26.2737V25.3374H42.2024C44.0016 25.3374 44.176 25.2823 44.2219 24.7591C44.277 24.144 44.2586 24.144 42.0831 24.144H40.137L40.3756 23.6575C40.5959 23.2169 40.6143 23.0884 40.6051 22.0327C40.6051 20.7108 40.3756 19.7837 39.7422 18.4894L39.3842 17.755L39.3567 13.4864C39.3292 9.50244 39.32 9.20869 39.1547 8.94248C38.861 8.45596 38.5856 8.35498 37.5116 8.35498H36.5477L36.5936 7.63897C36.6762 6.41807 36.1622 4.76572 35.5104 4.17822C35.2167 3.91201 35.079 3.85693 34.7393 3.85693C34.3997 3.85693 34.262 3.91201 33.9682 4.17822C33.3165 4.76572 32.8024 6.41807 32.885 7.63897L32.9309 8.35498H32.0405H31.1409L31.1868 7.62979C31.2694 6.23447 30.6084 4.38018 29.8924 3.97627C29.7823 3.91201 29.5161 3.86612 29.3049 3.85693C28.5706 3.85693 28.0014 4.62803 27.625 6.1335C27.4323 6.90459 27.3864 7.74912 27.5333 8.11631L27.625 8.35498H26.7989H25.9727V5.27979C25.9727 3.48975 25.936 2.03018 25.8809 1.76397C25.7616 1.23154 25.3577 0.708302 24.862 0.460449C24.5315 0.286037 24.3112 0.276855 20.1252 0.276855C16.4167 0.286037 15.6915 0.304398 15.4161 0.423733ZM24.4948 1.69053C24.6508 1.85576 24.7151 2.06689 24.7518 2.4708L24.8069 3.03076H20.1528H15.5079V2.46162C15.5079 2.00264 15.5446 1.85576 15.7098 1.68135L15.9026 1.47021H20.0977H24.2928L24.4948 1.69053ZM24.7793 4.9585V5.69287H20.1436H15.5079V4.9585V4.22412H20.1436H24.7793V4.9585ZM29.5436 5.49092C29.7915 5.97744 30.0118 6.87705 30.0118 7.40947C30.0118 8.00615 29.8282 8.26318 29.3875 8.26318C29.204 8.26318 29.002 8.22647 28.9469 8.18975C28.7633 8.07041 28.6348 7.73076 28.6348 7.37276C28.6348 6.80362 29.1489 5.14209 29.3233 5.14209C29.3508 5.14209 29.4426 5.29815 29.5436 5.49092ZM35.1983 6.1794C35.5655 7.32686 35.4737 8.14385 34.9688 8.26318C34.6383 8.3458 34.2803 8.19893 34.1518 7.93272C33.9407 7.45537 34.1151 6.28037 34.5282 5.47256C34.7026 5.12373 34.7209 5.11455 34.8403 5.27979C34.9137 5.38076 35.079 5.78467 35.1983 6.1794ZM11.3862 7.06065L11.6524 7.32686V15.7355V24.144H10.9272H10.2112L10.1653 22.8772C10.1286 21.7481 10.101 21.5646 9.89907 21.2065C9.2565 20.0315 7.61333 19.8479 6.75044 20.8485C6.34653 21.3259 6.23638 21.794 6.23638 23.0792V24.144H5.502H4.76763V15.7355V7.32686L5.03384 7.06065L5.30005 6.79443H8.21001H11.12L11.3862 7.06065ZM24.7793 7.62061V8.35498H20.1436H15.5079V7.62061V6.88623H20.1436H24.7793V7.62061ZM24.7793 10.1909V10.9253H20.1436H15.5079V10.1909V9.45654H20.1436H24.7793V10.1909ZM38.0715 9.5667C38.1542 9.64932 38.1817 10.5765 38.1817 13.1835V16.6901L37.6125 16.6442C37.2913 16.6167 36.9333 16.6442 36.8047 16.6901C36.612 16.7636 36.5293 16.736 36.2815 16.5249C35.9327 16.2128 35.2993 16.1118 34.2344 16.1853C32.9584 16.2679 32.7657 16.5341 32.7657 18.2507C32.7657 19.3155 32.784 19.4624 32.9584 19.6827C33.2247 20.0132 33.601 20.1968 34.0508 20.1968C34.3905 20.1968 34.418 20.2151 34.3721 20.3987C34.1793 21.2433 34.1426 21.5095 34.1426 22.0878C34.1426 22.7487 34.3262 23.5657 34.5649 23.9329L34.6934 24.144H30.3331H25.9727V16.8003V9.45654H31.967C36.511 9.45654 37.9889 9.48409 38.0715 9.5667ZM24.7793 12.853V13.5874H20.5475H16.3157L15.9118 13.3304C15.5262 13.0917 15.517 13.0642 15.5079 12.596V12.1187H20.1436H24.7793V12.853ZM15.2417 14.3493C15.6731 14.6339 16.3249 15.9558 16.6186 17.1308C16.7838 17.8101 16.8389 18.2874 16.8389 19.0493C16.8389 19.9581 16.8114 20.0958 16.6094 20.4538C16.4167 20.7935 15.7924 21.2983 15.5813 21.2983C15.5538 21.2983 15.5079 20.7567 15.4987 20.0958C15.462 18.7831 15.3977 18.6362 14.8561 18.6362C14.3788 18.6362 14.3145 18.8015 14.3145 20.1142V21.3075L14.1125 21.2524C13.6627 21.1147 13.3139 20.8118 13.1028 20.3987C12.7815 19.747 12.809 18.2874 13.1487 17.0298C13.5526 15.5794 14.085 14.5421 14.5807 14.2759C14.8928 14.1106 14.8836 14.1015 15.2417 14.3493ZM24.7793 15.5151V16.2495H21.2084H17.6376L17.4723 15.763C17.3897 15.506 17.2612 15.1755 17.1877 15.0286L17.0592 14.7808H20.9239H24.7793V15.5151ZM35.492 17.4979C35.5196 17.5806 35.4737 17.755 35.3911 17.8927C35.2993 18.0212 35.1432 18.3241 35.0331 18.5628C34.8311 18.9942 34.8219 19.0034 34.3997 19.0034H33.959V18.1772V17.3511H34.6934C35.2901 17.3511 35.4461 17.3786 35.492 17.4979ZM24.7793 20.7935V24.144H23.9991H23.2188V22.097C23.2188 19.031 23.2831 19.0952 20.1711 19.0952H18.0782V18.6087C18.0782 18.3517 18.0415 17.9753 17.9956 17.7825L17.9129 17.4429H21.3461H24.7793V20.7935ZM37.8329 17.9753C38.1909 18.2048 38.4295 18.5444 38.7692 19.2972C39.3842 20.6282 39.6229 22.1796 39.3383 22.9782C39.1456 23.5198 38.8151 23.8136 38.2092 23.9972L37.9981 24.0614V22.8681C37.9981 21.7849 37.9797 21.6472 37.8145 21.4819C37.7135 21.381 37.5299 21.2983 37.4014 21.2983C37.2729 21.2983 37.0893 21.381 36.9883 21.4819C36.8231 21.6472 36.8047 21.7849 36.8047 22.8681V24.0614L36.6028 23.9972C35.3911 23.63 35.079 22.6202 35.5655 20.6925C35.795 19.7837 36.2815 18.6638 36.5936 18.3149C37.0434 17.8009 37.4198 17.6999 37.8329 17.9753ZM22.0254 22.2163V24.144H20.0977H18.17V22.2163V20.2886H20.0977H22.0254V22.2163ZM8.68735 21.6105C8.93521 21.8308 8.94439 21.8583 8.9811 22.9874L9.00864 24.144H8.21001H7.41138L7.4481 22.9874C7.47564 21.8491 7.47564 21.8308 7.73267 21.6105C8.06314 21.3351 8.35688 21.3351 8.68735 21.6105ZM16.9766 23.0425V24.144H16.2422H15.5079V23.3362V22.5284L15.9485 22.4091C16.1872 22.354 16.5084 22.2255 16.6553 22.1245C16.8114 22.0327 16.9399 21.9501 16.9583 21.9501C16.9674 21.9409 16.9766 22.4366 16.9766 23.0425ZM13.2588 22.2163C13.4608 22.3173 13.7821 22.4274 13.9749 22.4642L14.3145 22.5192V23.3271V24.144H13.5801H12.8458V23.0884C12.8458 22.5101 12.8549 22.0327 12.8733 22.0327C12.8825 22.0327 13.0661 22.1153 13.2588 22.2163ZM13.4333 25.879C13.7454 28.6237 15.6456 31.2675 18.2159 32.5435C19.4827 33.1769 20.6026 33.4247 22.1172 33.4247C23.6319 33.4247 24.7518 33.1769 26.0186 32.5435C28.5889 31.2675 30.4891 28.6237 30.8012 25.879L30.8655 25.3374H35.1616H39.4668V26.1452C39.4668 27.3661 39.577 27.3019 37.2913 27.3569C35.5012 27.4028 35.3543 27.4212 34.9963 27.6231C34.5098 27.8985 34.3262 28.1556 34.0049 29.0093C33.8581 29.3856 33.6286 29.9456 33.4817 30.2485C33.1879 30.8728 33.1512 31.4052 33.3624 31.9284C33.4542 32.1304 34.0049 32.7729 34.7577 33.5257C35.8409 34.6089 36.0061 34.82 36.0061 35.0679C36.0061 35.3249 35.8041 35.5636 34.3629 37.0048C33.1512 38.2073 32.6555 38.6479 32.4903 38.6479C32.3342 38.6479 31.912 38.2899 30.9848 37.3628C29.6446 36.0409 29.2866 35.8022 28.6624 35.8022C28.286 35.8114 28.1575 35.8573 26.6887 36.4724C25.4678 36.9956 25.3209 37.0874 25.0456 37.5647C24.8344 37.9411 24.8252 38.0604 24.7793 39.8688C24.7334 41.6313 24.7151 41.7966 24.559 41.9159C24.2928 42.1087 19.9417 42.1087 19.6754 41.9159C19.5194 41.7966 19.501 41.6313 19.4551 39.8688C19.3909 37.2618 19.3633 37.2251 17.4815 36.4448C16.0311 35.839 15.9393 35.8114 15.5721 35.8022C14.9479 35.8022 14.5899 36.0409 13.2497 37.3628C12.3225 38.2899 11.9002 38.6479 11.7442 38.6479C11.579 38.6479 11.0833 38.2073 9.87153 37.0048C8.43032 35.5636 8.22837 35.3249 8.22837 35.0679C8.22837 34.82 8.3936 34.6089 9.47681 33.5257C10.2295 32.7729 10.7803 32.1304 10.8721 31.9284C11.0833 31.4052 11.0465 30.8728 10.7528 30.2485C10.6059 29.9456 10.3764 29.3856 10.2295 29.0093C9.90825 28.1556 9.72466 27.8985 9.23814 27.6231C8.87095 27.412 8.75161 27.4028 6.94321 27.3753C4.65747 27.3294 4.76763 27.3937 4.76763 26.1452V25.3374H9.0729H13.369L13.4333 25.879ZM29.5987 25.8147C29.2774 28.1647 27.6618 30.3679 25.4678 31.4511C24.2836 32.0294 23.4116 32.2405 22.1172 32.2405C19.8407 32.2405 17.7293 31.2491 16.2881 29.4958C15.4528 28.4769 14.801 27.0356 14.6358 25.8147L14.5715 25.3374H22.1172H29.6629L29.5987 25.8147Z" fill="#C81F2A"/>
<path d="M6.3832 8.46514C6.26387 8.63037 6.23633 8.96084 6.23633 10.2001C6.23633 11.8892 6.28223 12.0269 6.85137 12.0269C7.38379 12.0269 7.42969 11.8616 7.42969 10.1267C7.42969 8.73135 7.41133 8.54775 7.26445 8.41924C7.0166 8.18975 6.54844 8.21729 6.3832 8.46514Z" fill="#C81F2A"/>
<path d="M9.14629 8.42842C9.01777 8.57529 8.99023 8.83232 8.99023 10.1726C8.99023 11.9259 9.02695 12.0269 9.58691 12.0269C10.1193 12.0269 10.1836 11.8341 10.1836 10.145C10.1836 8.96084 10.1561 8.63037 10.0367 8.46514C9.8623 8.20811 9.35742 8.18975 9.14629 8.42842Z" fill="#C81F2A"/>
<path d="M6.475 13.964L6.23633 14.1476V15.7081C6.23633 17.1401 6.25469 17.2778 6.41992 17.4431C6.64941 17.6726 7.08086 17.6818 7.27363 17.4614C7.40215 17.3146 7.42969 17.0575 7.42969 15.7357C7.42969 14.8819 7.39297 14.1384 7.35625 14.0833C7.28281 13.964 6.93398 13.7712 6.80547 13.7712C6.75957 13.7712 6.6127 13.8538 6.475 13.964Z" fill="#C81F2A"/>
<path d="M9.35742 13.835C9.02695 13.9544 8.99023 14.1471 8.99023 15.7444C8.99023 17.1581 9.00859 17.3417 9.15547 17.4702C9.38496 17.6813 9.77969 17.6629 10 17.4426C10.1652 17.2774 10.1836 17.1397 10.1836 15.7444C10.1836 14.2481 10.1836 14.2206 9.9541 14.0003C9.73379 13.7708 9.62363 13.7432 9.35742 13.835Z" fill="#C81F2A"/>
<path d="M27.9279 11.2007C27.4414 11.4944 27.3496 11.7882 27.3496 12.9907C27.3496 14.744 27.5791 14.9644 29.3508 14.9644C31.1408 14.9644 31.3428 14.7624 31.3428 13.0366C31.3428 11.2282 31.1316 11.0171 29.36 11.0171C28.3961 11.0171 28.1758 11.0446 27.9279 11.2007ZM30.1953 12.9907V13.771H29.3691H28.543V12.9907V12.2104H29.3691H30.1953V12.9907Z" fill="#C81F2A"/>
<path d="M33.3072 11.1731C32.8391 11.4577 32.7656 11.7239 32.7656 12.9907C32.7656 14.7991 32.9309 14.9644 34.7117 14.9644C35.9693 14.9644 36.1805 14.9001 36.5018 14.4228C36.6945 14.1382 36.7129 14.0005 36.7129 13.0183C36.7129 11.7882 36.6211 11.4944 36.1346 11.2007C35.8867 11.0446 35.6756 11.0171 34.6934 11.0171C33.7937 11.0171 33.4908 11.0538 33.3072 11.1731ZM35.5195 12.9907V13.771H34.7393H33.959V12.9907V12.2104H34.7393H35.5195V12.9907Z" fill="#C81F2A"/>
<path d="M28.2859 16.2403C28.1207 16.2862 27.9004 16.3964 27.7994 16.4882C27.423 16.8278 27.3496 17.1124 27.3496 18.1956C27.3496 19.9397 27.6066 20.1968 29.3691 20.1968C30.2504 20.1968 30.4707 20.1692 30.7186 20.0132C31.2693 19.6827 31.3428 19.4624 31.3428 18.1772C31.3428 16.9196 31.2693 16.6901 30.7828 16.3688C30.5166 16.1944 28.8184 16.1118 28.2859 16.2403ZM30.1494 18.1772V18.9575L29.3508 18.9851L28.543 19.0126V18.2415C28.543 17.8192 28.5705 17.4429 28.6072 17.4062C28.6439 17.3694 29.002 17.3603 29.415 17.3694L30.1494 17.397V18.1772Z" fill="#C81F2A"/>
</svg>
