<svg width="47" height="48" viewBox="0 0 47 48" fill="none" xmlns="http://www.w3.org/2000/svg">
<g clip-path="url(#clip0_191_57)">
<path d="M10.5199 0.809961L10.2812 1.05781V3.05898C10.2812 5.0418 10.2812 5.06016 10.5016 5.31719C10.6943 5.5375 10.7953 5.57422 11.1809 5.57422C12.0621 5.57422 12.209 5.21621 12.209 3.1416C12.209 1.41582 12.1631 1.09453 11.8602 0.800781C11.5297 0.470312 10.8596 0.470312 10.5199 0.809961Z" fill="#C81F2A"/>
<path d="M35.1398 0.800781C34.8369 1.09453 34.791 1.41582 34.791 3.1416C34.791 5.21621 34.9379 5.57422 35.8191 5.57422C36.2047 5.57422 36.3057 5.5375 36.4984 5.31719C36.7187 5.06016 36.7187 5.0418 36.7187 3.05898V1.05781L36.4801 0.809961C36.1404 0.470312 35.4703 0.470312 35.1398 0.800781Z" fill="#C81F2A"/>
<path d="M1.8725 2.44395C1.51449 2.80195 1.45941 3.22422 1.70727 3.60059C1.92758 3.93106 5.76469 7.7957 6.18695 8.10781C6.38891 8.25469 6.6643 8.37402 6.81117 8.37402C7.58227 8.37402 8.03207 7.61211 7.67406 6.92363C7.52719 6.65742 3.40551 2.52656 3.02914 2.27871C2.65277 2.03086 2.23051 2.08594 1.8725 2.44395Z" fill="#C81F2A"/>
<path d="M43.8238 2.39782C43.1445 2.9027 39.3074 6.84997 39.2432 7.11618C39.2064 7.25387 39.2064 7.51091 39.234 7.6945C39.3441 8.25446 40.0785 8.54821 40.6477 8.24528C40.9139 8.09841 45.0447 3.97673 45.2926 3.60036C45.5404 3.22399 45.4854 2.80173 45.1273 2.44372C44.7234 2.03981 44.3287 2.02145 43.8238 2.39782Z" fill="#C81F2A"/>
<path d="M27.9979 5.61085C27.4013 5.80362 26.9974 6.13409 25.3175 7.80479L23.4999 9.60401L22.3708 8.48409C20.9755 7.10714 20.6909 6.96026 19.5067 6.96026C18.855 6.96026 18.5888 6.99698 18.2491 7.15304C17.3128 7.5753 16.505 8.63097 16.3765 9.57647L16.3214 10.0079L15.8899 10.0722C14.5956 10.2649 13.439 11.4124 13.2645 12.6976L13.2003 13.129L12.778 13.1841C11.6673 13.331 10.6208 14.2306 10.2812 15.323C10.1802 15.6534 10.0976 16.0757 10.0976 16.2593C10.0976 16.5622 10.2628 17.2966 10.4005 17.6454C10.4464 17.7464 10.3546 17.829 10.1159 17.9392C9.51924 18.2146 9.02353 18.7194 8.70224 19.3712C8.43603 19.9128 8.39931 20.0689 8.39931 20.7665C8.39931 21.8497 8.64717 22.3638 9.70283 23.447L10.5015 24.264L5.35166 29.423C2.52431 32.2595 0.155955 34.6737 0.100877 34.7839C-0.0918961 35.1603 -0.0184586 35.6284 0.266112 35.9222C0.486424 36.1425 0.61494 36.1884 0.972948 36.1884H1.41357L5.00283 32.6083L8.58291 29.0282L11.8233 32.2687L15.0546 35.4999L9.70283 40.8517L4.36025 46.1942V46.6165C4.36025 46.9745 4.40615 47.0755 4.66318 47.305C4.99365 47.6079 5.37002 47.6538 5.76474 47.4427C5.90244 47.3692 9.28056 44.037 13.2645 40.0439C17.2577 36.0507 20.6267 32.7185 20.7644 32.645C21.0122 32.5165 21.0489 32.5349 22.2239 33.2968C24.4454 34.7472 25.1431 35.0042 26.979 35.0501L28.2183 35.0776L34.4696 41.329L40.721 47.5712H41.18C41.5655 47.5712 41.694 47.5253 41.896 47.3325C42.0888 47.1306 42.1347 47.0021 42.1347 46.6257V46.1575L38.4628 42.4765L34.7909 38.8046L35.305 38.2905C35.7181 37.8774 35.8282 37.703 35.8649 37.4001C35.9108 37.0513 35.8833 36.987 35.5895 36.6933C35.0663 36.17 34.6257 36.2435 33.8454 36.9962L33.414 37.4276L32.4501 36.4638L31.4862 35.4999L35.2315 31.7546L38.9677 28.0185L39.9315 28.9823L40.8862 29.937L40.363 30.4878C39.8765 30.9927 39.8397 31.0661 39.8397 31.4608C39.8397 32.0483 40.1978 32.4247 40.7577 32.4247C41.1065 32.4247 41.1983 32.3696 41.7032 31.8739L42.2724 31.3323L43.9798 33.0214C45.6505 34.6921 45.6872 34.7196 46.0728 34.7196C46.3849 34.7196 46.5226 34.6646 46.7337 34.4534C46.954 34.2331 46.9999 34.1046 46.9999 33.7466V33.306L43.4657 29.7626L39.9315 26.2284V25.6776C39.9315 24.8974 39.6378 23.5847 39.2522 22.6392L38.931 21.8222L39.9315 20.8032C41.2167 19.5089 41.3544 19.2243 41.3544 17.9667C41.3544 17.1497 41.3269 16.9937 41.1065 16.5898C40.6292 15.6718 39.8489 15.0843 38.8116 14.8823L38.3067 14.7814L38.2517 14.3407C38.0956 13.0097 37.0124 11.9815 35.5161 11.7337C35.1948 11.6786 35.1856 11.6603 35.1306 11.2288C34.9837 9.9712 33.8362 8.80538 32.6245 8.66768C32.1472 8.62178 32.0737 8.53917 32.0095 8.03429C31.8993 7.17139 31.1833 6.21671 30.3204 5.79444C29.9716 5.62921 29.7054 5.57413 29.0536 5.55577C28.6038 5.54659 28.1265 5.56495 27.9979 5.61085ZM29.6962 7.74054C29.8706 7.89659 30.0542 8.15362 30.0909 8.31886C30.247 8.90636 30.1001 9.14503 28.7874 10.4853C27.539 11.7521 27.539 11.7521 27.539 12.1835C27.539 12.5323 27.5849 12.6608 27.8052 12.8812C28.0255 13.1015 28.154 13.1474 28.5028 13.1474C28.9343 13.1474 28.9435 13.1474 30.2011 11.9081C30.9997 11.1095 31.5597 10.6321 31.7433 10.5771C32.1655 10.4669 32.6153 10.623 32.9458 10.9993C33.1845 11.2655 33.2304 11.3941 33.2304 11.7888V12.2661L31.4954 14.0103C30.5407 14.9741 29.7145 15.8554 29.6595 15.9655C29.4667 16.3511 29.5401 16.7274 29.8798 17.0671C30.1735 17.3608 30.247 17.3884 30.5774 17.3425C30.9263 17.2966 31.119 17.1314 32.7163 15.5524C34.6165 13.6706 34.8735 13.4962 35.4794 13.6982C35.9567 13.8542 36.3515 14.3591 36.3515 14.8089C36.3515 15.0108 36.3056 15.2679 36.2505 15.378C36.1954 15.4882 35.3692 16.3694 34.4145 17.3333C32.7989 18.9581 32.6796 19.105 32.6796 19.4171C32.6796 19.8944 32.8448 20.1882 33.212 20.3626C33.7995 20.638 33.9556 20.5462 35.8466 18.6644C37.7376 16.7917 37.9946 16.6173 38.5821 16.8101C39.289 17.0487 39.6745 17.9024 39.3532 18.5267C39.2706 18.6735 37.2786 20.7114 34.9103 23.0706C31.4862 26.4671 30.4489 27.4493 29.788 27.8991C27.6583 29.3312 25.4919 30.0564 22.9583 30.1849C21.6548 30.2491 21.0397 30.3593 20.3788 30.653L19.8831 30.8733L17.2944 28.2847L14.6966 25.696L15.0821 25.4482C15.9175 24.9157 16.6151 23.8233 16.6151 23.0706C16.6151 22.8411 16.6519 22.7952 16.964 22.7493C18.4327 22.4831 19.5159 21.4458 19.6995 20.1056C19.7546 19.6833 19.7546 19.6833 20.186 19.619C21.4804 19.4263 22.6554 18.2605 22.8206 16.9937L22.8757 16.5622L23.3071 16.5071C24.2526 16.3786 25.3083 15.5708 25.7306 14.6345C25.8866 14.2948 25.9233 14.0286 25.9233 13.3769C25.9233 12.4314 25.7581 11.9448 25.2165 11.339L24.886 10.9718L26.6577 9.21846L28.4202 7.45597H28.8976C29.2923 7.45597 29.4208 7.50187 29.6962 7.74054ZM19.9474 8.96143C20.1126 9.03487 21.0765 9.9253 22.0954 10.9534C23.7019 12.5782 23.9497 12.872 24.014 13.1933C24.1792 14.0929 23.1235 14.9099 22.3249 14.4876C22.0312 14.3224 18.5153 10.7974 18.3685 10.5128C18.1206 10.0263 18.3776 9.35616 18.9284 9.01651C19.2864 8.7962 19.5435 8.78702 19.9474 8.96143ZM16.8263 12.055C17.1108 12.2019 20.6358 15.7177 20.8011 16.0114C20.9847 16.3694 20.9571 16.7458 20.7185 17.1038C20.4155 17.5536 19.9565 17.7831 19.5067 17.7005C19.1854 17.6454 18.9009 17.3884 17.1935 15.6901C15.5411 14.0378 15.2382 13.689 15.1923 13.4044C15.027 12.5232 16.0644 11.6694 16.8263 12.055ZM13.8062 15.2128C13.9714 15.2954 14.9169 16.1767 15.9083 17.1681C17.4138 18.6919 17.7075 19.0315 17.7626 19.3253C17.7993 19.5089 17.7993 19.7659 17.7718 19.8853C17.6892 20.2341 17.2853 20.6472 16.9181 20.7757C16.2847 20.9776 16.0919 20.8491 14.0265 18.7745C11.9243 16.654 11.8417 16.5255 12.1722 15.837C12.5026 15.1761 13.1819 14.919 13.8062 15.2128ZM12.0987 19.7017C12.3649 19.8485 14.2927 21.7671 14.5405 22.1435C15.0454 22.9146 14.1825 24.1079 13.237 23.9335C12.9616 23.8876 12.6679 23.6489 11.7132 22.7126C10.2628 21.2806 10.0792 20.9134 10.4464 20.2341C10.7585 19.6374 11.5204 19.3987 12.0987 19.7017ZM37.6642 23.9335C37.8753 24.622 38.0038 25.3105 38.0038 25.797V26.2284L34.0657 30.1665L30.1185 34.1138L29.6136 33.6364C28.9526 33.003 28.7507 32.9388 28.0071 33.0765C26.8413 33.2968 25.4276 33.0214 24.4179 32.388L23.9313 32.0759L24.427 32.0116C26.4374 31.7546 28.7599 30.9009 30.4489 29.7993C31.6606 29.019 32.4042 28.3581 35.0204 25.7327C36.3331 24.42 37.4255 23.3735 37.4622 23.4103C37.4989 23.447 37.5907 23.6765 37.6642 23.9335ZM15.1923 28.9364L18.4052 32.1493L17.4413 33.1132L16.4774 34.0771L13.2462 30.8458L10.0058 27.6054L10.9421 26.669C11.4653 26.1458 11.906 25.7235 11.9335 25.7235C11.961 25.7235 13.4298 27.1648 15.1923 28.9364Z" fill="#C81F2A"/>
<path d="M0.238623 11.0912C-0.101025 11.44 -0.101025 12.101 0.238623 12.4498L0.486475 12.6885H2.48765C4.47046 12.6885 4.48882 12.6885 4.74585 12.4682C4.96616 12.2754 5.00288 12.1744 5.00288 11.7705C5.00288 11.3666 4.96616 11.2656 4.74585 11.0729C4.48882 10.8525 4.47046 10.8525 2.48765 10.8525H0.486475L0.238623 11.0912Z" fill="#C81F2A"/>
<path d="M42.2541 11.0729C42.0338 11.2656 41.9971 11.3666 41.9971 11.7705C41.9971 12.1744 42.0338 12.2754 42.2541 12.4682C42.5111 12.6885 42.5295 12.6885 44.5123 12.6885H46.5135L46.7613 12.4498C47.101 12.101 47.101 11.44 46.7613 11.0912L46.5135 10.8525H44.5123C42.5295 10.8525 42.5111 10.8525 42.2541 11.0729Z" fill="#C81F2A"/>
<path d="M37.343 33.5721C37.0125 33.7557 36.9023 33.976 36.9023 34.4441C36.9023 35.2519 37.8203 35.665 38.4445 35.1326C38.6006 35.0041 38.7475 34.7838 38.7842 34.6369C38.8484 34.3432 38.6648 33.8291 38.4354 33.6363C38.2059 33.4435 37.6275 33.416 37.343 33.5721Z" fill="#C81F2A"/>
</g>
<defs>
<clipPath id="clip0_191_57">
<rect width="47" height="47" fill="white" transform="translate(0 0.571289)"/>
</clipPath>
</defs>
</svg>
