<svg width="48" height="48" viewBox="0 0 48 48" fill="none" xmlns="http://www.w3.org/2000/svg">
<path d="M22.8116 0.671684C22.3112 0.82922 21.6811 1.19989 21.4216 1.48717C21.3104 1.59837 20.3096 3.16447 19.1976 4.95298L17.1774 8.19638L16.816 7.45503C16.3804 6.53761 15.4259 5.54605 14.6105 5.15685C13.5818 4.65644 12.3771 4.48963 11.3949 4.7213C10.255 4.98077 9.13374 5.85186 8.57773 6.90828C8.14219 7.76083 8.01245 8.39098 8.06805 9.50301C8.10512 10.2444 8.16999 10.5316 8.40166 11.1062C8.7538 11.9309 9.35614 12.7279 9.99556 13.2098C10.2458 13.3951 10.4311 13.5804 10.3848 13.6175C10.3477 13.6453 8.46653 14.2106 6.19614 14.8593C3.92576 15.5079 1.88705 16.1381 1.65538 16.2586C1.1457 16.5088 0.543356 17.1296 0.256083 17.6856C0.0985464 18.0007 0.0336784 18.3065 0.00587777 18.9367C-0.0404566 20.0394 0.181948 20.6696 0.858429 21.3461C1.51638 22.004 2.08166 22.2449 2.99908 22.2913C3.69409 22.3283 3.96283 22.2635 7.58617 21.3183L11.4319 20.3174L11.5061 20.5954C11.7099 21.4202 11.2837 23.7369 10.7184 24.886C10.5423 25.2381 8.47579 28.6576 6.11274 32.4941C3.75896 36.3306 1.76658 39.6111 1.69245 39.7964C1.61831 39.9725 1.52564 40.3895 1.49784 40.7138C1.37737 42.0019 2.11872 43.2993 3.30488 43.8831C3.76823 44.1147 3.93503 44.1425 4.71345 44.1425C5.4826 44.1425 5.65867 44.1147 6.11274 43.8831C6.40001 43.7441 6.81702 43.429 7.03943 43.1881C7.26183 42.9471 8.99474 40.3895 10.8759 37.5075C12.7664 34.6162 14.3139 32.2624 14.3139 32.2717C14.3232 32.2717 13.9803 34.885 13.554 38.0728C12.998 42.1409 12.7756 44.0684 12.7942 44.5596C12.8498 45.8013 13.4799 46.7558 14.6105 47.3118C15.0738 47.5342 15.2499 47.5713 15.9727 47.5713C16.7326 47.5713 16.8716 47.5435 17.4276 47.2655C18.1597 46.9041 18.7157 46.3203 18.9752 45.6345C19.1976 45.0414 20.4115 37.4797 20.3281 37.1739C20.1613 36.4881 19.2161 36.2472 18.7157 36.7569C18.4747 36.9978 18.4377 37.1739 17.8909 40.7138C17.5666 42.7525 17.2422 44.5966 17.1681 44.8098C17.0013 45.2731 16.6214 45.5789 16.121 45.6438C15.5001 45.7272 14.8329 45.2175 14.7495 44.5874C14.7217 44.3835 15.1665 40.7509 15.7873 36.0989C16.9642 27.212 16.9457 27.5641 16.3804 27.2769C16.0283 27.0915 15.5279 27.1008 15.2869 27.2954C15.185 27.3881 12.9795 30.6963 10.3848 34.644C6.98383 39.8335 5.5938 41.8814 5.37139 42.0297C4.39837 42.6877 3.08248 41.6312 3.53655 40.5563C3.61069 40.3802 5.58453 37.1368 7.91051 33.3374C12.0528 26.6189 12.6737 25.5254 13.0166 24.4227L13.1834 23.8944H16.5936H20.0038V24.747C20.0038 25.2196 19.9574 26.1092 19.9111 26.7208C19.6702 29.6492 19.6702 29.4824 19.976 29.8252C20.1984 30.0754 20.3188 30.131 20.6154 30.131C21.1065 30.131 21.3845 29.9735 21.5328 29.6121C21.7737 29.019 21.9035 26.795 21.9035 23.3384C21.9035 19.8541 21.8015 18.3714 21.4031 15.9342L21.2455 14.9427L22.4502 12.7001C23.1174 11.4676 23.6827 10.4575 23.7105 10.4575C23.7383 10.4575 24.3036 11.4676 24.9708 12.7001L26.1755 14.9427L26.018 15.9249C25.3786 19.8448 25.2952 25.2381 25.8048 29.4082C26.0921 31.7527 28.2791 45.1804 28.4459 45.6345C28.7054 46.3203 29.2614 46.9041 29.9935 47.2655C30.5495 47.5435 30.6885 47.5713 31.4484 47.5713C32.1712 47.5713 32.3472 47.5342 32.8106 47.3118C33.9411 46.7558 34.5713 45.8013 34.6269 44.5596C34.6454 44.0684 34.423 42.1409 33.867 38.0728C33.4407 34.885 33.0979 32.2717 33.1071 32.2717C33.1071 32.2624 34.664 34.6162 36.5451 37.5075C38.4356 40.3895 40.1592 42.9471 40.3816 43.1881C40.604 43.429 41.021 43.7441 41.3083 43.8831C41.7624 44.1147 41.9384 44.1425 42.7076 44.1425C43.486 44.1425 43.6528 44.1147 44.1162 43.8831C45.3116 43.2993 46.0437 42.0019 45.9232 40.7045C45.8861 40.3709 45.7842 39.9261 45.6915 39.713C45.5896 39.4998 43.6435 36.275 41.3546 32.559C36.5822 24.8026 36.7861 25.1547 36.4617 24.3393C36.0262 23.2365 35.7482 21.3553 35.915 20.6418L35.9891 20.3174L39.8349 21.3183C43.4397 22.2635 43.7269 22.3283 44.422 22.2913C45.0521 22.2635 45.256 22.2171 45.7471 21.9484C46.4699 21.5685 46.9889 20.9847 47.2576 20.2896C47.5356 19.5483 47.48 18.3065 47.1372 17.6393C46.8591 17.1111 46.2383 16.4902 45.7008 16.2215C45.5062 16.1288 43.4953 15.5079 41.2249 14.8593C38.9545 14.2013 37.0733 13.6453 37.0363 13.6082C36.9899 13.5804 37.1753 13.3951 37.4255 13.2098C38.0649 12.7279 38.6672 11.9309 39.0194 11.1062C39.2511 10.5316 39.3159 10.2444 39.353 9.50301C39.4086 8.39098 39.2789 7.76083 38.8433 6.91755C38.3058 5.87966 37.2772 5.04564 36.1745 4.76764C33.9967 4.19309 31.6152 5.34218 30.6051 7.45503L30.2437 8.19638L28.2235 4.95298C27.1115 3.16447 26.0921 1.57983 25.9531 1.44083C25.8141 1.30183 25.4434 1.05162 25.1191 0.894089C24.4333 0.551212 23.451 0.458546 22.8116 0.671684ZM24.2295 2.63626C24.5075 2.766 24.9245 3.39614 27.1485 6.97315C28.5849 9.27134 29.9008 11.3378 30.0676 11.5695C31.0591 12.8669 32.6716 14.1457 34.0709 14.7295C34.4693 14.8963 36.9899 15.6655 39.6773 16.4532C42.374 17.2316 44.6814 17.9266 44.8204 18.0007C45.2374 18.2139 45.4228 18.4919 45.4691 18.9645C45.5155 19.5205 45.3394 19.9097 44.9038 20.1784C44.7278 20.2896 44.459 20.373 44.3015 20.373C44.144 20.373 42.0867 19.8726 39.7237 19.261C37.3606 18.6494 35.2756 18.149 35.081 18.149C34.6454 18.149 34.3303 18.4363 34.1913 18.9459C34.0709 19.4093 33.9041 20.8364 33.9041 21.4573V21.9484H30.6514H27.3987L27.4543 20.8549C27.5377 19.5112 27.8343 16.7868 28.0196 15.7396C28.0937 15.3041 28.1586 14.85 28.1586 14.7202C28.1586 14.5905 27.0281 12.385 25.6473 9.80881C22.6263 4.18383 22.5058 3.94289 22.5058 3.67415C22.5058 3.33127 22.8209 2.84013 23.1638 2.65479C23.553 2.45092 23.8217 2.44165 24.2295 2.63626ZM21.8849 6.95462L22.5892 8.27978L22.2278 8.94699C22.024 9.31767 21.2733 10.7355 20.5505 12.0885L19.2254 14.5627L19.3922 15.6377C19.6331 17.2594 19.8833 19.539 19.9574 20.8086L20.0223 21.9484H16.7696H13.517V21.4573C13.517 20.8364 13.3502 19.4093 13.2297 18.9459C13.0907 18.4363 12.7756 18.149 12.3493 18.149C12.1547 18.149 10.0697 18.6494 7.70664 19.261C5.34359 19.8726 3.27708 20.373 3.11954 20.373C2.96201 20.373 2.69327 20.2896 2.5172 20.1784C2.08166 19.9097 1.90559 19.5205 1.95192 18.9645C1.99825 18.4919 2.18359 18.2139 2.59133 18.0007C2.73034 17.9359 5.04705 17.2316 7.73444 16.4532C10.4311 15.6655 12.9517 14.8963 13.3502 14.7295C14.49 14.2569 15.602 13.4507 16.5843 12.4221C17.3535 11.6066 17.6778 11.1432 19.2624 8.57632C20.254 6.96389 21.0973 5.64799 21.1251 5.63872C21.1529 5.63872 21.4957 6.2318 21.8849 6.95462ZM13.3965 6.76928C13.7579 6.89902 14.0822 7.11216 14.3973 7.4365C15.046 8.08517 15.2962 8.65046 15.3518 9.57714C15.3889 10.2722 15.3703 10.3556 15.0738 10.9208C14.4159 12.1997 13.0351 12.6352 11.747 11.9773C11.089 11.6529 10.7091 11.2822 10.357 10.6243C10.0604 10.0776 10.0419 9.98488 10.0419 9.16013C10.0419 8.49292 10.079 8.20565 10.2087 7.98324C10.8759 6.74148 12.0991 6.27814 13.3965 6.76928ZM35.9891 6.78782C36.471 7.01022 36.9251 7.45503 37.2123 7.98324C37.3421 8.20565 37.3791 8.49292 37.3791 9.16013C37.3791 9.98488 37.3606 10.0776 37.0641 10.6243C35.9428 12.6908 33.3481 12.8576 32.3472 10.9208C32.0507 10.3556 32.0322 10.2722 32.0692 9.57714C32.1248 8.65046 32.375 8.08517 33.0237 7.4365C33.8577 6.60248 35.0346 6.34301 35.9891 6.78782ZM34.4045 24.4227C34.7474 25.5347 35.3775 26.6189 39.5013 33.3281C41.8365 37.1183 43.8011 40.3617 43.8845 40.547C44.3293 41.6312 43.0319 42.6877 42.0496 42.0297C41.8272 41.8814 40.4372 39.8335 37.0363 34.644C34.4508 30.6963 32.2453 27.3881 32.1341 27.2954C31.8932 27.1008 31.3928 27.0915 31.0406 27.2769C30.4753 27.5641 30.4568 27.212 31.6337 36.0989C32.2546 40.7509 32.6994 44.3835 32.6716 44.5874C32.5974 45.1526 31.9951 45.6716 31.4298 45.6716C31.0591 45.6716 30.5495 45.375 30.3549 45.0414C30.2344 44.8376 29.8637 42.7247 29.039 37.5631C27.6119 28.6298 27.4173 27.0822 27.4173 24.7563V23.8944H30.8275H34.2377L34.4045 24.4227Z" fill="#C81F2A"/>
<path d="M19.6702 32.4108C19.3737 32.5405 19.0771 32.9668 19.0771 33.2726C19.0771 33.8379 19.4942 34.2734 20.0502 34.2734C20.8935 34.2734 21.329 33.319 20.773 32.6981C20.495 32.3923 20.0131 32.2718 19.6702 32.4108Z" fill="#C81F2A"/>
</svg>
