<svg width="44" height="49" viewBox="0 0 44 49" fill="none" xmlns="http://www.w3.org/2000/svg">
<path d="M25.1207 0.884624C24.6296 1.37577 23.2766 4.01683 22.7114 5.61073C22.35 6.59301 21.9978 7.92744 21.8125 9.01167C21.6179 10.1052 21.6642 12.496 21.8959 13.5154C22.3129 15.3409 23.1469 16.9441 24.3423 18.2322L25.0651 19.0013V21.7073V24.4132L24.6574 23.9591C24.296 23.5606 24.2404 23.4402 24.1385 22.8193C23.3322 17.8245 19.0973 14.4421 12.6383 13.608C11.7023 13.4876 10.5254 13.4227 9.73775 13.4505C9.56168 13.4598 9.35781 13.5802 9.09833 13.8304L8.72766 14.2011L8.78326 14.8127C8.85739 15.5541 9.45047 17.3518 9.94162 18.3341C11.4706 21.3366 14.1395 23.468 17.42 24.302C18.8749 24.6727 20.1259 24.8024 21.8495 24.7468L23.3137 24.7005L23.7585 25.2379C24.2497 25.8496 24.6945 26.7021 24.9076 27.4249L25.0466 27.8975L24.3887 27.9624C22.0534 28.1755 19.4402 28.9262 17.7073 29.8899L17.1605 30.1957L16.4099 29.9641C15.7519 29.7602 15.4832 29.7324 14.1766 29.7324C11.9247 29.7231 11.6004 29.8343 7.84731 31.9379L5.12285 33.4577L4.61317 33.1889C4.05716 32.8924 3.47335 32.846 2.9544 33.0406C2.30572 33.2909 0.758154 34.2639 0.461614 34.6067C0.0724056 35.0701 -0.0851311 35.7095 0.044605 36.3119C0.137274 36.7289 5.96613 46.9502 6.42021 47.4877C6.81868 47.9603 7.30056 48.1456 8.05118 48.0993C8.66279 48.0622 8.78326 48.0159 9.77481 47.4414C10.3586 47.0985 10.961 46.6815 11.1 46.5147C11.5726 45.9772 11.6931 45.171 11.4336 44.3462C11.378 44.1702 12.7217 43.0303 13.1202 42.9284C13.4352 42.8357 13.7503 42.9284 16.8362 43.9107C19.4309 44.7447 20.3483 45.0042 20.8487 45.032C21.6827 45.0876 33.081 43.9107 33.7853 43.7068C34.0633 43.6234 34.4525 43.4751 34.6563 43.3732C35.0085 43.1879 42.8205 37.8594 43.1633 37.5721C43.2467 37.498 43.4321 37.2107 43.5711 36.9327C44.09 35.8485 43.7842 34.4677 42.8668 33.8005C42.042 33.1982 41.2266 33.1611 40.1887 33.6801L39.6141 33.9673L39.262 33.6893C37.353 32.1603 36 31.1317 35.305 30.6776C33.1088 29.2505 30.4399 28.3053 27.7062 27.9995C27.1965 27.9439 26.7702 27.8883 26.7517 27.8697C26.7332 27.8512 26.8258 27.5454 26.9556 27.1747C27.2151 26.4148 27.6228 25.7106 28.1417 25.1082L28.4939 24.6912L29.819 24.7375C32.1636 24.8302 34.3969 24.4688 36.2132 23.6996C36.8897 23.4124 37.0565 23.3012 37.1769 23.051C37.3623 22.671 37.2418 22.2726 36.8989 22.0779C36.6209 21.9204 36.3615 21.976 35.305 22.4301C34.0633 22.949 32.006 23.329 30.7272 23.2641L30.1434 23.2363L31.1442 22.4394C33.776 20.3543 36.9638 18.2044 40.1887 16.3232L41.2636 15.6931L41.0876 16.212C40.6613 17.463 39.7809 18.9643 38.882 19.9744C38.3353 20.5952 38.2704 20.9289 38.6411 21.2903C39.0396 21.698 39.3825 21.6146 40.0033 20.9659C41.069 19.8446 41.9957 18.2044 42.5888 16.4159C43.1726 14.6181 43.1541 14.127 42.4869 13.6451C42.2366 13.469 42.0884 13.4412 41.2636 13.4505C38.7245 13.4783 35.9444 14.0899 33.8038 15.0815C31.3017 16.2491 29.3001 18.1951 28.3549 20.3821C28.012 21.1791 27.7155 22.2448 27.6135 23.0139C27.5579 23.4494 27.4838 23.5884 27.0483 24.0611L26.5478 24.6078V21.837V19.0569L27.0205 18.6029C30.2917 15.4336 30.9218 10.4017 28.7348 4.95278C27.9471 2.99747 26.8166 0.968029 26.4088 0.782692C25.9918 0.588085 25.3617 0.643688 25.1207 0.884624ZM27.6228 6.27794C28.7812 9.58621 28.8553 12.3848 27.8359 14.7571C27.5672 15.4058 27.0668 16.2584 26.7795 16.5827L26.5571 16.8422V10.309L26.5664 3.77589L26.9278 4.56357C27.1317 4.99911 27.4467 5.76826 27.6228 6.27794ZM25.0466 13.5246L25.0188 16.7495L24.5647 16.0545C23.5824 14.5718 23.184 13.154 23.1747 11.143C23.1747 9.10434 23.5732 7.36216 24.5833 4.98058L25.0188 3.96122L25.0466 7.13049C25.0559 8.87267 25.0559 11.7454 25.0466 13.5246ZM14.2692 15.4243C17.9945 16.2769 20.6726 18.1303 21.9144 20.725C22.109 21.142 22.2943 21.5775 22.3314 21.7073C22.3963 21.9111 22.3592 21.8926 21.9515 21.559C20.2371 20.1412 16.6972 17.6669 14.1302 16.1008C13.3889 15.6467 12.7495 15.239 12.6939 15.1927C12.5734 15.0907 13.1572 15.1741 14.2692 15.4243ZM39.1415 15.1649C39.123 15.1834 38.3909 15.6375 37.5198 16.175C34.8046 17.8615 31.5149 20.1504 29.9488 21.4571C29.7078 21.6609 29.4854 21.7999 29.4576 21.7721C29.3742 21.698 30.097 20.2153 30.5048 19.613C30.9774 18.9272 32.1543 17.7967 32.942 17.2777C34.193 16.453 35.9444 15.7487 37.7515 15.3595C38.6504 15.1649 39.2434 15.0815 39.1415 15.1649ZM12.3695 16.7958C15.2515 18.5102 19.4402 21.4107 21.4047 23.051L21.6827 23.2826H20.9877C20.0147 23.2826 18.7822 23.1158 17.7443 22.8564C16.6786 22.5784 15.0477 21.7999 14.2229 21.1698C12.7031 20.0207 11.4892 18.3341 10.7478 16.3696C10.544 15.8321 10.5347 15.7672 10.683 15.8228C10.7664 15.8506 11.5263 16.2862 12.3695 16.7958ZM27.9379 29.5285C30.2546 29.8436 32.6454 30.7239 34.5544 31.975C35.0641 32.3086 37.631 34.2917 38.0666 34.6809C38.1129 34.718 37.3623 35.1628 36.3985 35.6632C34.7397 36.5343 33.3497 37.0903 32.5157 37.2293L32.1265 37.2849L32.0709 36.7937C31.9134 35.5242 31.0237 34.3843 29.8654 33.9766C29.643 33.9025 28.1139 33.6708 26.4552 33.4762C24.6389 33.2538 23.2118 33.0314 22.8596 32.9202C22.5353 32.8182 21.8495 32.4754 21.3306 32.1696C20.8117 31.8638 20.0796 31.4653 19.7089 31.2799L19.0231 30.9371L19.3382 30.7795C19.7923 30.5479 21.1731 30.0753 22.0349 29.8528C23.7863 29.408 26.0752 29.2876 27.9379 29.5285ZM16.2616 31.4838C17.5312 31.8916 18.8378 32.4846 20.2186 33.2816C22.1924 34.4214 22.2851 34.4492 26.0011 34.9033C29.5966 35.3574 29.7634 35.4037 30.2546 36.145C30.5419 36.5899 30.7087 37.2571 30.5419 37.359C30.4863 37.3961 28.9109 37.5165 27.039 37.637C25.1578 37.7482 23.499 37.8872 23.3415 37.9336C22.8504 38.0818 22.7021 38.6471 23.045 39.0826C23.2488 39.3421 23.2488 39.3421 24.1292 39.2865C24.6203 39.2587 26.4181 39.1475 28.1232 39.0456C33.9799 38.6842 33.8409 38.7212 37.8997 36.5806C41.486 34.6902 41.3563 34.7458 41.6158 34.8106C42.2552 34.9774 42.5332 35.7558 42.1625 36.3582C42.0328 36.5621 34.2949 41.8905 33.7945 42.1129C33.5814 42.2056 33.1644 42.326 32.8678 42.3816C32.1543 42.5021 21.5345 43.5771 21.0711 43.5771C20.858 43.5771 19.3104 43.123 17.3458 42.4929C14.5009 41.5847 13.8986 41.4179 13.3889 41.4086C12.6197 41.4086 11.9618 41.6959 11.2482 42.3538C10.961 42.6226 10.683 42.8357 10.6366 42.8357C10.5996 42.8357 10.0714 41.9924 9.47827 40.9546C8.87593 39.9167 8.31065 38.9992 8.21798 38.9158C7.93997 38.6656 7.41176 38.712 7.18936 38.9992C6.83722 39.4441 6.76308 39.2587 8.67206 42.567C10.0158 44.893 10.0899 45.0412 10.0621 45.3563C10.0528 45.5695 8.24578 46.6351 7.90291 46.6351C7.57857 46.6351 7.77317 46.9409 4.4649 41.214C1.11029 35.3944 1.3883 35.9226 1.56437 35.6632C1.77751 35.3296 3.51968 34.3751 3.78842 34.4399C3.95522 34.477 4.18689 34.8106 4.73364 35.7651C5.14138 36.4694 5.53986 37.1181 5.63252 37.2015C5.85493 37.4331 6.39241 37.4146 6.62408 37.1829C6.92989 36.8771 6.86502 36.4323 6.39241 35.6168C6.16074 35.2184 5.9754 34.8477 5.9754 34.8014C5.9754 34.6624 11.1926 31.7711 11.8599 31.5394C12.7958 31.2151 13.1109 31.1687 14.3156 31.1965C15.2793 31.2243 15.6037 31.2707 16.2616 31.4838Z" fill="#C81F2A"/>
</svg>
