<svg width="46" height="43" viewBox="0 0 46 43" fill="none" xmlns="http://www.w3.org/2000/svg">
<mask id="path-1-outside-1_24_4518" maskUnits="userSpaceOnUse" x="0" y="0.671354" width="46" height="42" fill="black">
<rect fill="white" y="0.671354" width="46" height="42"/>
<path d="M35.4471 2.08269C32.1991 1.20927 28.3961 1.7515 25.4096 3.47442C24.9466 3.74159 24.3129 4.2466 23.6913 4.77616C23.5077 4.93261 23.3171 5.09863 23.1217 5.27123C23.0524 5.18996 22.9861 5.1249 22.9432 5.08452C22.8361 4.98387 22.7115 4.88175 22.5969 4.79178C22.3593 4.60521 22.0511 4.38195 21.7308 4.1601C21.1062 3.7275 20.3169 3.21806 19.7946 2.94813C19.3687 2.72793 18.4667 2.39 17.7796 2.16921C16.7793 1.84766 15.4498 1.70751 14.2185 1.69518C12.9852 1.68284 11.65 1.79692 10.6336 2.09548C2.76671 4.40623 -1.09436 12.9879 2.50003 20.3201C3.22223 21.7934 4.07879 22.8674 5.86855 24.7145L8.70362 27.6404C8.67103 27.9765 8.69901 28.3239 8.80685 28.6737C8.97507 29.2194 9.29699 29.6416 9.61959 29.9642C10.2299 30.5745 11.085 31.125 12.2042 30.976C12.1999 31.0433 12.1971 31.1117 12.1971 31.1811C12.1971 32.0518 12.616 32.8391 13.0356 33.3574C13.2614 33.6363 13.5429 33.9083 13.8731 34.1216C14.1894 34.326 14.6536 34.5421 15.2141 34.5421C15.37 34.5421 15.5206 34.5257 15.6638 34.4987C15.662 34.5553 15.661 34.6094 15.661 34.6605C15.661 35.073 15.7088 35.5317 15.8965 35.9863C16.0943 36.4652 16.4005 36.8277 16.7504 37.1111C17.0766 37.3752 17.4826 37.6378 17.9793 37.7785C18.3525 37.8842 18.7257 37.9064 19.092 37.8573C19.0846 37.9514 19.0807 38.0467 19.0807 38.1435C19.0807 40.5919 21.581 42.0636 23.726 40.9521C24.0915 40.7627 24.5387 40.3909 24.8846 40.0865C25.2821 39.7366 25.7306 39.3084 26.1421 38.8795C26.9282 38.0603 27.6732 37.1775 27.9082 36.1988C27.9182 36.1571 27.9271 36.1152 27.9353 36.0735C27.9917 36.119 28.0454 36.1619 28.0964 36.2005C28.1599 36.2487 28.2357 36.3038 28.3158 36.3551C28.3571 36.3816 28.5406 36.5017 28.784 36.5744L28.7838 36.5746C30.2265 37.0052 31.4972 36.1155 32.1382 35.4136C32.7227 34.7734 33.3393 33.6965 33.204 32.5176C33.3769 32.5364 33.5272 32.5374 33.6494 32.5364C34.2555 32.5316 34.9124 32.4441 35.5247 32.1001C36.1574 31.7448 36.5608 31.2194 36.8482 30.68C37.0039 30.3876 37.306 29.831 37.307 29.1295C37.3073 28.9196 37.2811 28.7195 37.2361 28.5284C37.408 28.546 37.5552 28.5466 37.6696 28.5466C39.7583 28.5466 41.2859 26.8445 41.286 24.8349C41.286 24.6018 41.2625 24.3575 41.1892 24.0945L42.3199 22.5599C45.305 18.508 45.8442 13.3601 43.6973 8.89672C42.1468 5.67327 38.9239 3.01761 35.4471 2.08269ZM22.2449 35.7358C24.1619 33.7869 24.9392 33.4968 25.8386 34.3961C26.8102 35.3678 26.628 36.1281 25.0206 37.8033C24.2572 38.5989 23.3528 39.3947 23.0108 39.5719C21.8826 40.1565 20.6351 39.4065 20.6351 38.1435C20.6351 37.4851 20.87 37.1339 22.2449 35.7358ZM18.8972 32.1893C20.8087 30.3207 21.5415 30.099 22.5325 31.0903C23.4952 32.0529 23.1469 32.915 20.9744 34.9471C19.3695 36.4486 18.6599 36.6573 17.7284 35.903C17.3585 35.6035 17.2154 35.2566 17.2154 34.6605C17.2154 33.9233 17.3982 33.6548 18.8972 32.1893ZM11.0716 3.58675C12.6893 3.11156 15.7268 3.14204 17.3043 3.6492C17.976 3.86504 18.7754 4.17072 19.0807 4.32859C19.9386 4.77176 21.9667 6.17653 21.9674 6.32793C21.9674 6.4021 21.157 7.25968 20.1664 8.23381C17.548 10.8094 17.0346 12.231 17.9748 14.3027C18.696 15.8922 19.995 16.7585 21.6753 16.77C23.3518 16.7814 23.8332 16.5193 25.9606 14.4374C27.0163 13.4046 27.9495 12.5595 28.0354 12.5589C28.1205 12.5589 30.787 15.1428 33.961 18.3012C39.3527 23.6665 39.7316 24.0956 39.7316 24.8349C39.7315 26.0532 38.8342 26.9923 37.6696 26.9923C36.7787 26.9923 36.6471 26.8825 32.0233 22.2769C27.9795 18.2489 27.2334 17.597 26.9044 17.8042C26.6925 17.9377 26.4861 18.2159 26.4455 18.4224C26.3979 18.6672 28.0051 20.4477 31.0531 23.5266C35.9739 28.4971 36.1294 28.7229 35.4764 29.949C35.0756 30.7013 34.5894 30.9745 33.6369 30.9821C32.7897 30.989 32.6026 30.8319 28.0263 26.2739C23.9826 22.2459 23.2365 21.594 22.9074 21.8011C22.0137 22.364 22.3109 22.7797 26.9195 27.4121C29.4233 29.929 31.536 32.2057 31.6145 32.4718C31.9742 33.6913 30.3859 35.4308 29.2283 35.0853C28.9594 35.0049 26.6414 32.8593 24.0769 30.3172C20.196 26.4703 19.2789 25.6703 18.6103 25.5472C17.9167 25.4197 17.772 25.2824 17.5502 24.5421C17.2178 23.4328 16.1589 22.3844 15.1861 22.2019C13.6346 21.9108 12.9642 22.231 11.0582 24.1728L9.27155 25.993L6.98489 23.6329C5.2329 21.8247 4.5103 20.8898 3.89566 19.6359C0.733635 13.1857 4.11137 5.63119 11.0716 3.58675ZM15.4873 28.7282C17.4251 26.7903 18.0275 26.5851 18.9796 27.5374C19.8638 28.4214 19.7054 29.1595 18.2983 30.7143C17.0215 32.1251 15.8514 32.9876 15.2141 32.9877C14.5768 32.9877 13.7515 31.9681 13.7514 31.1811C13.7514 30.5827 14.038 30.1777 15.4873 28.7282ZM11.8139 25.4772C13.4033 23.8617 14.0814 23.4545 14.8617 23.6465C15.2098 23.732 15.5685 24.0913 15.8236 24.6102C16.2235 25.4236 16.2226 25.4503 15.7603 26.1982C15.5018 26.6165 14.6883 27.5158 13.9529 28.1969C12.3979 29.6364 11.6456 29.7918 10.7188 28.865C9.86391 28.0101 10.1292 27.1894 11.8139 25.4772ZM26.1864 4.82062C28.8321 3.29428 32.2122 2.82231 35.0435 3.58372C38.089 4.40265 40.9448 6.75995 42.2967 9.57047C44.1857 13.4977 43.724 18.0333 41.0685 21.6379L40.3507 22.6122L28.0135 10.2811L25.8535 12.4305C23.3184 14.9534 22.9426 15.2254 21.9414 15.263C19.7331 15.346 18.3523 13.0039 19.5116 11.1417C20.2381 9.97464 24.8918 5.5676 26.1864 4.82062Z"/>
</mask>
<path d="M35.4471 2.08269C32.1991 1.20927 28.3961 1.7515 25.4096 3.47442C24.9466 3.74159 24.3129 4.2466 23.6913 4.77616C23.5077 4.93261 23.3171 5.09863 23.1217 5.27123C23.0524 5.18996 22.9861 5.1249 22.9432 5.08452C22.8361 4.98387 22.7115 4.88175 22.5969 4.79178C22.3593 4.60521 22.0511 4.38195 21.7308 4.1601C21.1062 3.7275 20.3169 3.21806 19.7946 2.94813C19.3687 2.72793 18.4667 2.39 17.7796 2.16921C16.7793 1.84766 15.4498 1.70751 14.2185 1.69518C12.9852 1.68284 11.65 1.79692 10.6336 2.09548C2.76671 4.40623 -1.09436 12.9879 2.50003 20.3201C3.22223 21.7934 4.07879 22.8674 5.86855 24.7145L8.70362 27.6404C8.67103 27.9765 8.69901 28.3239 8.80685 28.6737C8.97507 29.2194 9.29699 29.6416 9.61959 29.9642C10.2299 30.5745 11.085 31.125 12.2042 30.976C12.1999 31.0433 12.1971 31.1117 12.1971 31.1811C12.1971 32.0518 12.616 32.8391 13.0356 33.3574C13.2614 33.6363 13.5429 33.9083 13.8731 34.1216C14.1894 34.326 14.6536 34.5421 15.2141 34.5421C15.37 34.5421 15.5206 34.5257 15.6638 34.4987C15.662 34.5553 15.661 34.6094 15.661 34.6605C15.661 35.073 15.7088 35.5317 15.8965 35.9863C16.0943 36.4652 16.4005 36.8277 16.7504 37.1111C17.0766 37.3752 17.4826 37.6378 17.9793 37.7785C18.3525 37.8842 18.7257 37.9064 19.092 37.8573C19.0846 37.9514 19.0807 38.0467 19.0807 38.1435C19.0807 40.5919 21.581 42.0636 23.726 40.9521C24.0915 40.7627 24.5387 40.3909 24.8846 40.0865C25.2821 39.7366 25.7306 39.3084 26.1421 38.8795C26.9282 38.0603 27.6732 37.1775 27.9082 36.1988C27.9182 36.1571 27.9271 36.1152 27.9353 36.0735C27.9917 36.119 28.0454 36.1619 28.0964 36.2005C28.1599 36.2487 28.2357 36.3038 28.3158 36.3551C28.3571 36.3816 28.5406 36.5017 28.784 36.5744L28.7838 36.5746C30.2265 37.0052 31.4972 36.1155 32.1382 35.4136C32.7227 34.7734 33.3393 33.6965 33.204 32.5176C33.3769 32.5364 33.5272 32.5374 33.6494 32.5364C34.2555 32.5316 34.9124 32.4441 35.5247 32.1001C36.1574 31.7448 36.5608 31.2194 36.8482 30.68C37.0039 30.3876 37.306 29.831 37.307 29.1295C37.3073 28.9196 37.2811 28.7195 37.2361 28.5284C37.408 28.546 37.5552 28.5466 37.6696 28.5466C39.7583 28.5466 41.2859 26.8445 41.286 24.8349C41.286 24.6018 41.2625 24.3575 41.1892 24.0945L42.3199 22.5599C45.305 18.508 45.8442 13.3601 43.6973 8.89672C42.1468 5.67327 38.9239 3.01761 35.4471 2.08269ZM22.2449 35.7358C24.1619 33.7869 24.9392 33.4968 25.8386 34.3961C26.8102 35.3678 26.628 36.1281 25.0206 37.8033C24.2572 38.5989 23.3528 39.3947 23.0108 39.5719C21.8826 40.1565 20.6351 39.4065 20.6351 38.1435C20.6351 37.4851 20.87 37.1339 22.2449 35.7358ZM18.8972 32.1893C20.8087 30.3207 21.5415 30.099 22.5325 31.0903C23.4952 32.0529 23.1469 32.915 20.9744 34.9471C19.3695 36.4486 18.6599 36.6573 17.7284 35.903C17.3585 35.6035 17.2154 35.2566 17.2154 34.6605C17.2154 33.9233 17.3982 33.6548 18.8972 32.1893ZM11.0716 3.58675C12.6893 3.11156 15.7268 3.14204 17.3043 3.6492C17.976 3.86504 18.7754 4.17072 19.0807 4.32859C19.9386 4.77176 21.9667 6.17653 21.9674 6.32793C21.9674 6.4021 21.157 7.25968 20.1664 8.23381C17.548 10.8094 17.0346 12.231 17.9748 14.3027C18.696 15.8922 19.995 16.7585 21.6753 16.77C23.3518 16.7814 23.8332 16.5193 25.9606 14.4374C27.0163 13.4046 27.9495 12.5595 28.0354 12.5589C28.1205 12.5589 30.787 15.1428 33.961 18.3012C39.3527 23.6665 39.7316 24.0956 39.7316 24.8349C39.7315 26.0532 38.8342 26.9923 37.6696 26.9923C36.7787 26.9923 36.6471 26.8825 32.0233 22.2769C27.9795 18.2489 27.2334 17.597 26.9044 17.8042C26.6925 17.9377 26.4861 18.2159 26.4455 18.4224C26.3979 18.6672 28.0051 20.4477 31.0531 23.5266C35.9739 28.4971 36.1294 28.7229 35.4764 29.949C35.0756 30.7013 34.5894 30.9745 33.6369 30.9821C32.7897 30.989 32.6026 30.8319 28.0263 26.2739C23.9826 22.2459 23.2365 21.594 22.9074 21.8011C22.0137 22.364 22.3109 22.7797 26.9195 27.4121C29.4233 29.929 31.536 32.2057 31.6145 32.4718C31.9742 33.6913 30.3859 35.4308 29.2283 35.0853C28.9594 35.0049 26.6414 32.8593 24.0769 30.3172C20.196 26.4703 19.2789 25.6703 18.6103 25.5472C17.9167 25.4197 17.772 25.2824 17.5502 24.5421C17.2178 23.4328 16.1589 22.3844 15.1861 22.2019C13.6346 21.9108 12.9642 22.231 11.0582 24.1728L9.27155 25.993L6.98489 23.6329C5.2329 21.8247 4.5103 20.8898 3.89566 19.6359C0.733635 13.1857 4.11137 5.63119 11.0716 3.58675ZM15.4873 28.7282C17.4251 26.7903 18.0275 26.5851 18.9796 27.5374C19.8638 28.4214 19.7054 29.1595 18.2983 30.7143C17.0215 32.1251 15.8514 32.9876 15.2141 32.9877C14.5768 32.9877 13.7515 31.9681 13.7514 31.1811C13.7514 30.5827 14.038 30.1777 15.4873 28.7282ZM11.8139 25.4772C13.4033 23.8617 14.0814 23.4545 14.8617 23.6465C15.2098 23.732 15.5685 24.0913 15.8236 24.6102C16.2235 25.4236 16.2226 25.4503 15.7603 26.1982C15.5018 26.6165 14.6883 27.5158 13.9529 28.1969C12.3979 29.6364 11.6456 29.7918 10.7188 28.865C9.86391 28.0101 10.1292 27.1894 11.8139 25.4772ZM26.1864 4.82062C28.8321 3.29428 32.2122 2.82231 35.0435 3.58372C38.089 4.40265 40.9448 6.75995 42.2967 9.57047C44.1857 13.4977 43.724 18.0333 41.0685 21.6379L40.3507 22.6122L28.0135 10.2811L25.8535 12.4305C23.3184 14.9534 22.9426 15.2254 21.9414 15.263C19.7331 15.346 18.3523 13.0039 19.5116 11.1417C20.2381 9.97464 24.8918 5.5676 26.1864 4.82062Z" fill="white"/>
<path d="M35.4471 2.08269C32.1991 1.20927 28.3961 1.7515 25.4096 3.47442C24.9466 3.74159 24.3129 4.2466 23.6913 4.77616C23.5077 4.93261 23.3171 5.09863 23.1217 5.27123C23.0524 5.18996 22.9861 5.1249 22.9432 5.08452C22.8361 4.98387 22.7115 4.88175 22.5969 4.79178C22.3593 4.60521 22.0511 4.38195 21.7308 4.1601C21.1062 3.7275 20.3169 3.21806 19.7946 2.94813C19.3687 2.72793 18.4667 2.39 17.7796 2.16921C16.7793 1.84766 15.4498 1.70751 14.2185 1.69518C12.9852 1.68284 11.65 1.79692 10.6336 2.09548C2.76671 4.40623 -1.09436 12.9879 2.50003 20.3201C3.22223 21.7934 4.07879 22.8674 5.86855 24.7145L8.70362 27.6404C8.67103 27.9765 8.69901 28.3239 8.80685 28.6737C8.97507 29.2194 9.29699 29.6416 9.61959 29.9642C10.2299 30.5745 11.085 31.125 12.2042 30.976C12.1999 31.0433 12.1971 31.1117 12.1971 31.1811C12.1971 32.0518 12.616 32.8391 13.0356 33.3574C13.2614 33.6363 13.5429 33.9083 13.8731 34.1216C14.1894 34.326 14.6536 34.5421 15.2141 34.5421C15.37 34.5421 15.5206 34.5257 15.6638 34.4987C15.662 34.5553 15.661 34.6094 15.661 34.6605C15.661 35.073 15.7088 35.5317 15.8965 35.9863C16.0943 36.4652 16.4005 36.8277 16.7504 37.1111C17.0766 37.3752 17.4826 37.6378 17.9793 37.7785C18.3525 37.8842 18.7257 37.9064 19.092 37.8573C19.0846 37.9514 19.0807 38.0467 19.0807 38.1435C19.0807 40.5919 21.581 42.0636 23.726 40.9521C24.0915 40.7627 24.5387 40.3909 24.8846 40.0865C25.2821 39.7366 25.7306 39.3084 26.1421 38.8795C26.9282 38.0603 27.6732 37.1775 27.9082 36.1988C27.9182 36.1571 27.9271 36.1152 27.9353 36.0735C27.9917 36.119 28.0454 36.1619 28.0964 36.2005C28.1599 36.2487 28.2357 36.3038 28.3158 36.3551C28.3571 36.3816 28.5406 36.5017 28.784 36.5744L28.7838 36.5746C30.2265 37.0052 31.4972 36.1155 32.1382 35.4136C32.7227 34.7734 33.3393 33.6965 33.204 32.5176C33.3769 32.5364 33.5272 32.5374 33.6494 32.5364C34.2555 32.5316 34.9124 32.4441 35.5247 32.1001C36.1574 31.7448 36.5608 31.2194 36.8482 30.68C37.0039 30.3876 37.306 29.831 37.307 29.1295C37.3073 28.9196 37.2811 28.7195 37.2361 28.5284C37.408 28.546 37.5552 28.5466 37.6696 28.5466C39.7583 28.5466 41.2859 26.8445 41.286 24.8349C41.286 24.6018 41.2625 24.3575 41.1892 24.0945L42.3199 22.5599C45.305 18.508 45.8442 13.3601 43.6973 8.89672C42.1468 5.67327 38.9239 3.01761 35.4471 2.08269ZM22.2449 35.7358C24.1619 33.7869 24.9392 33.4968 25.8386 34.3961C26.8102 35.3678 26.628 36.1281 25.0206 37.8033C24.2572 38.5989 23.3528 39.3947 23.0108 39.5719C21.8826 40.1565 20.6351 39.4065 20.6351 38.1435C20.6351 37.4851 20.87 37.1339 22.2449 35.7358ZM18.8972 32.1893C20.8087 30.3207 21.5415 30.099 22.5325 31.0903C23.4952 32.0529 23.1469 32.915 20.9744 34.9471C19.3695 36.4486 18.6599 36.6573 17.7284 35.903C17.3585 35.6035 17.2154 35.2566 17.2154 34.6605C17.2154 33.9233 17.3982 33.6548 18.8972 32.1893ZM11.0716 3.58675C12.6893 3.11156 15.7268 3.14204 17.3043 3.6492C17.976 3.86504 18.7754 4.17072 19.0807 4.32859C19.9386 4.77176 21.9667 6.17653 21.9674 6.32793C21.9674 6.4021 21.157 7.25968 20.1664 8.23381C17.548 10.8094 17.0346 12.231 17.9748 14.3027C18.696 15.8922 19.995 16.7585 21.6753 16.77C23.3518 16.7814 23.8332 16.5193 25.9606 14.4374C27.0163 13.4046 27.9495 12.5595 28.0354 12.5589C28.1205 12.5589 30.787 15.1428 33.961 18.3012C39.3527 23.6665 39.7316 24.0956 39.7316 24.8349C39.7315 26.0532 38.8342 26.9923 37.6696 26.9923C36.7787 26.9923 36.6471 26.8825 32.0233 22.2769C27.9795 18.2489 27.2334 17.597 26.9044 17.8042C26.6925 17.9377 26.4861 18.2159 26.4455 18.4224C26.3979 18.6672 28.0051 20.4477 31.0531 23.5266C35.9739 28.4971 36.1294 28.7229 35.4764 29.949C35.0756 30.7013 34.5894 30.9745 33.6369 30.9821C32.7897 30.989 32.6026 30.8319 28.0263 26.2739C23.9826 22.2459 23.2365 21.594 22.9074 21.8011C22.0137 22.364 22.3109 22.7797 26.9195 27.4121C29.4233 29.929 31.536 32.2057 31.6145 32.4718C31.9742 33.6913 30.3859 35.4308 29.2283 35.0853C28.9594 35.0049 26.6414 32.8593 24.0769 30.3172C20.196 26.4703 19.2789 25.6703 18.6103 25.5472C17.9167 25.4197 17.772 25.2824 17.5502 24.5421C17.2178 23.4328 16.1589 22.3844 15.1861 22.2019C13.6346 21.9108 12.9642 22.231 11.0582 24.1728L9.27155 25.993L6.98489 23.6329C5.2329 21.8247 4.5103 20.8898 3.89566 19.6359C0.733635 13.1857 4.11137 5.63119 11.0716 3.58675ZM15.4873 28.7282C17.4251 26.7903 18.0275 26.5851 18.9796 27.5374C19.8638 28.4214 19.7054 29.1595 18.2983 30.7143C17.0215 32.1251 15.8514 32.9876 15.2141 32.9877C14.5768 32.9877 13.7515 31.9681 13.7514 31.1811C13.7514 30.5827 14.038 30.1777 15.4873 28.7282ZM11.8139 25.4772C13.4033 23.8617 14.0814 23.4545 14.8617 23.6465C15.2098 23.732 15.5685 24.0913 15.8236 24.6102C16.2235 25.4236 16.2226 25.4503 15.7603 26.1982C15.5018 26.6165 14.6883 27.5158 13.9529 28.1969C12.3979 29.6364 11.6456 29.7918 10.7188 28.865C9.86391 28.0101 10.1292 27.1894 11.8139 25.4772ZM26.1864 4.82062C28.8321 3.29428 32.2122 2.82231 35.0435 3.58372C38.089 4.40265 40.9448 6.75995 42.2967 9.57047C44.1857 13.4977 43.724 18.0333 41.0685 21.6379L40.3507 22.6122L28.0135 10.2811L25.8535 12.4305C23.3184 14.9534 22.9426 15.2254 21.9414 15.263C19.7331 15.346 18.3523 13.0039 19.5116 11.1417C20.2381 9.97464 24.8918 5.5676 26.1864 4.82062Z" stroke="#C81F2A" stroke-width="1.60016" mask="url(#path-1-outside-1_24_4518)"/>
<path d="M25.3302 33.415C24.9645 33.3053 24.5965 33.3359 24.2296 33.4726C23.55 33.726 22.7957 34.3791 21.8478 35.3428C21.1681 36.0339 20.7262 36.5089 20.4611 36.9053C20.1656 37.3471 20.0763 37.7095 20.0763 38.1435C20.0764 39.8336 21.7761 40.8438 23.2706 40.0693C23.5117 39.9444 23.872 39.6546 24.2296 39.3398C24.6058 39.0087 25.0344 38.6004 25.4269 38.1914C26.2242 37.3605 26.7788 36.6526 26.9435 35.9668C27.0324 35.5962 27.0073 35.2384 26.8683 34.8935C26.7347 34.5625 26.5071 34.2706 26.2365 34C25.9769 33.7404 25.6822 33.5207 25.3302 33.415ZM22.0138 30.0566C21.6518 29.9206 21.2807 29.916 20.8995 30.0312C20.5356 30.1413 20.1722 30.3571 19.795 30.6435C19.4149 30.9322 18.9918 31.3151 18.5079 31.7881C17.7709 32.5086 17.3045 32.9844 17.0333 33.3828C16.8889 33.5951 16.7876 33.8002 16.7277 34.0244C16.6689 34.2441 16.6574 34.4548 16.6573 34.6601C16.6573 34.9995 16.6974 35.3156 16.8175 35.6064C16.9412 35.9061 17.1337 36.14 17.3781 36.3379C17.6445 36.5536 17.9308 36.7302 18.2521 36.8213C18.584 36.9153 18.9182 36.9079 19.2589 36.8076C19.8954 36.6202 20.5605 36.102 21.3585 35.3554C22.4349 34.3486 23.1592 33.5478 23.4503 32.8271C23.6063 32.4408 23.65 32.0517 23.5421 31.6631C23.4379 31.2876 23.2085 30.9721 22.9308 30.6943L22.7198 30.497C22.5043 30.3096 22.272 30.1537 22.0138 30.0566ZM14.2101 2.68943C13.0246 2.67758 11.7987 2.78927 10.9152 3.04881C3.62857 5.18928 0.0771915 13.114 3.39465 19.8818C4.04803 21.2148 4.81863 22.2003 6.58411 24.0224L8.87122 26.3828L9.27063 26.7949L9.67297 26.3847L11.4601 24.5654C12.4185 23.589 12.9993 23.0937 13.4982 22.8554C13.9478 22.6408 14.3679 22.6176 15.0841 22.7519C15.4273 22.8163 15.8397 23.0495 16.2159 23.4219C16.5882 23.7903 16.8805 24.2518 17.0157 24.7031C17.1239 25.064 17.248 25.423 17.5197 25.6806C17.7311 25.8811 17.9877 25.9793 18.2491 26.0429L18.5109 26.0976C18.6772 26.1283 18.9696 26.2573 19.7726 26.958C20.5546 27.6404 21.7415 28.7886 23.6847 30.7148C24.9703 31.9892 26.1955 33.1657 27.1349 34.0351C27.6041 34.4694 28.0053 34.8307 28.3087 35.0898C28.4597 35.2188 28.5916 35.3273 28.6984 35.4082C28.7514 35.4483 28.805 35.4858 28.8546 35.5176C28.8903 35.5404 28.9722 35.5927 29.0704 35.622C29.9604 35.8874 30.8577 35.344 31.4064 34.7431C31.9633 34.1331 32.4133 33.1948 32.1534 32.3135L32.0997 32.1816C32.0803 32.1442 32.0613 32.1144 32.0499 32.0967C32.0185 32.0475 31.981 31.9954 31.9415 31.9433C31.8616 31.8379 31.7542 31.7071 31.6271 31.5586C31.3718 31.2602 31.0164 30.8659 30.589 30.4053C29.7326 29.4824 28.5738 28.2785 27.3185 27.0166C24.9959 24.682 23.8129 23.4612 23.3077 22.7549C23.1695 22.5615 23.1118 22.4442 23.087 22.3828C23.2117 22.4613 23.4066 22.6085 23.7072 22.8711C24.4235 23.497 25.6065 24.6523 27.6329 26.6709C29.9103 28.9392 31.1241 30.1408 31.8722 30.7685C32.2471 31.0832 32.546 31.2907 32.8361 31.4092C33.1479 31.5365 33.4081 31.5429 33.6427 31.541V31.542C34.1656 31.5378 34.6327 31.4616 35.0392 31.2334C35.4531 31.0009 35.741 30.6469 35.9728 30.2119C36.1333 29.9105 36.314 29.554 36.3146 29.1279C36.3152 28.6901 36.1298 28.2776 35.8175 27.8242C35.209 26.9407 33.8909 25.5951 31.4532 23.1328C29.9311 21.5953 28.7742 20.3871 28.006 19.5361C27.6207 19.1092 27.3402 18.7805 27.1622 18.5488C27.1233 18.4981 27.0918 18.454 27.0656 18.417C27.0732 18.4067 27.0822 18.398 27.09 18.3887C27.2148 18.468 27.4081 18.6153 27.7042 18.874C28.4205 19.4999 29.6036 20.6553 31.63 22.6738C33.93 24.9647 35.1424 26.1676 35.8888 26.791C36.2639 27.1042 36.5645 27.3092 36.8595 27.4248C37.1721 27.5472 37.4362 27.5517 37.671 27.5517C39.1685 27.5517 40.2929 26.3383 40.2931 24.8349C40.2931 24.5761 40.255 24.3179 40.0861 23.9961C39.9335 23.7056 39.6801 23.3731 39.2902 22.9316C38.5064 22.0442 37.0464 20.5799 34.3575 17.9043C32.7695 16.324 31.3077 14.8867 30.2316 13.8437C29.6938 13.3225 29.2507 12.8974 28.9357 12.6025C28.779 12.4559 28.6505 12.3383 28.5568 12.2558C28.5108 12.2154 28.4668 12.1776 28.4298 12.1484C28.4126 12.1348 28.3875 12.1159 28.3595 12.0976C28.3461 12.0889 28.3206 12.0724 28.2882 12.0566C28.2785 12.0519 28.1763 11.999 28.0372 11.999L27.965 12.0029C27.8983 12.0114 27.849 12.0292 27.8282 12.0371C27.7917 12.051 27.7622 12.0668 27.7433 12.0771C27.7051 12.098 27.6701 12.1208 27.6447 12.1387C27.5918 12.1758 27.5317 12.2235 27.4698 12.2744C27.3438 12.378 27.1788 12.5229 26.9884 12.6953C26.6057 13.0418 26.1022 13.5168 25.5704 14.0371C24.4954 15.0891 23.8983 15.6159 23.3829 15.8965C22.9118 16.1529 22.4864 16.2154 21.6808 16.2099C20.2297 16.1999 19.1219 15.4718 18.4865 14.0713C18.058 13.1271 17.9898 12.4089 18.2648 11.6474C18.5572 10.8376 19.2597 9.91252 20.5607 8.63279C21.0593 8.1424 21.5146 7.67971 21.8468 7.3281C22.0122 7.15306 22.1515 7.00122 22.2511 6.88572C22.2999 6.82908 22.3458 6.77331 22.382 6.72459C22.3992 6.70133 22.4223 6.66911 22.4435 6.63279C22.4539 6.61487 22.4705 6.58559 22.4855 6.54881C22.4934 6.52943 22.5137 6.47768 22.5236 6.40623L22.5294 6.3281L22.5206 6.22752C22.5044 6.13512 22.4698 6.06876 22.4552 6.04197C22.4293 5.99448 22.4009 5.95703 22.382 5.93357C22.3434 5.88583 22.2999 5.8425 22.2638 5.80857C22.1887 5.73797 22.0908 5.65672 21.9845 5.57322C21.7687 5.40375 21.4779 5.19348 21.1661 4.97752C20.5482 4.54951 19.8026 4.07008 19.34 3.83103L18.9972 3.67381C18.5832 3.49832 17.9857 3.27943 17.4777 3.11619C16.6127 2.83809 15.395 2.7013 14.2101 2.68943ZM18.507 26.5263C18.1533 26.3911 17.7923 26.3929 17.424 26.5185C17.0772 26.6368 16.7307 26.8616 16.3673 27.1543C15.9996 27.4504 15.5814 27.8435 15.0929 28.332C14.3739 29.0511 13.9051 29.5477 13.6202 29.9502C13.3107 30.3875 13.1935 30.7493 13.1935 31.1806C13.1935 31.7461 13.4765 32.3187 13.8107 32.7314C13.9834 32.9448 14.1885 33.1403 14.4142 33.2861C14.635 33.4288 14.9121 33.5478 15.2159 33.5478C15.4911 33.5478 15.7693 33.4576 16.0245 33.3379C16.2869 33.2148 16.5655 33.0412 16.8507 32.831C17.4213 32.4105 18.0601 31.8135 18.715 31.0898C19.4163 30.3149 19.9083 29.6426 20.048 28.9912C20.1229 28.6416 20.0963 28.3041 19.9659 27.9795C19.8401 27.6662 19.6281 27.3925 19.3771 27.1416C19.1189 26.8833 18.8365 26.6525 18.507 26.5263ZM14.7902 23.0625C14.3099 22.9935 13.853 23.1049 13.3546 23.4043C12.8216 23.7245 12.2104 24.2767 11.4161 25.084C10.5769 25.937 9.9986 26.6544 9.78333 27.3203C9.66829 27.6761 9.65116 28.0313 9.75891 28.3808C9.86366 28.7205 10.0715 29.0079 10.3243 29.2607C10.8542 29.7905 11.4557 30.1234 12.215 29.9668C12.8813 29.8291 13.5598 29.3251 14.3351 28.6074C15.0775 27.9199 15.9381 26.9783 16.2384 26.4922C16.3496 26.3123 16.453 26.1454 16.5265 25.9951C16.6039 25.8368 16.6686 25.6586 16.6769 25.4512C16.6851 25.2452 16.6351 25.0622 16.5724 24.8974C16.5123 24.7395 16.4247 24.5595 16.3282 24.3633C16.0442 23.7856 15.583 23.2465 14.9972 23.1025L14.7902 23.0625ZM35.1906 3.04295C32.2091 2.24123 28.6768 2.73874 25.9083 4.33592C25.5345 4.55166 24.9647 4.99927 24.338 5.53318C23.6993 6.07735 22.9663 6.74155 22.2531 7.41697C21.5398 8.09238 20.8417 8.78292 20.2745 9.38084C19.7208 9.96463 19.2544 10.4984 19.0382 10.8457C17.6358 13.0982 19.3182 15.9216 21.964 15.8222C22.238 15.812 22.5081 15.7845 22.7941 15.6914C23.0802 15.5982 23.3524 15.4496 23.6525 15.2324C24.232 14.8128 24.9943 14.0769 26.2501 12.8271L28.0148 11.0713L33.7882 16.8428L39.9562 23.0078L40.4171 23.4687L40.8029 22.9443L41.5216 21.9697C44.2957 18.204 44.7847 13.4474 42.8029 9.32713C41.3793 6.36803 38.3913 3.90363 35.1906 3.04295Z" fill="#C81F2A" stroke="white" stroke-width="1.12011"/>
</svg>
