<svg width="125" height="41" viewBox="0 0 125 41" fill="none" xmlns="http://www.w3.org/2000/svg">
<path fill-rule="evenodd" clip-rule="evenodd" d="M0 0.629456H79.2582V38.6789H0V0.629456ZM7.78388 12.9921C7.78388 12.6258 7.64652 12.3053 7.3718 12.0763C7.09707 11.8932 6.63919 11.6643 5.95238 11.4353C5.26557 11.2064 4.71611 10.9774 4.25824 10.7485C2.83882 10.0617 2.15202 9.10015 2.15202 7.86388C2.15202 7.26864 2.28937 6.71919 2.65567 6.26132C3.02197 5.80344 3.52564 5.43715 4.16667 5.20821C4.80769 4.93349 5.54029 4.79612 6.36447 4.79612C7.14285 4.79612 7.82967 4.93349 8.4707 5.20821C9.06593 5.48294 9.5696 5.89501 9.9359 6.44447C10.2564 6.94813 10.4396 7.54336 10.4396 8.18439H7.78388C7.78388 7.7723 7.64652 7.40601 7.3718 7.17707C7.09707 6.90234 6.73077 6.81077 6.2729 6.81077C5.81502 6.81077 5.44871 6.90235 5.17399 7.0855C4.89926 7.31444 4.7619 7.58916 4.7619 7.90967C4.7619 8.1844 4.89926 8.41332 5.21978 8.64226C5.4945 8.8712 6.04395 9.14594 6.77655 9.37488C7.55494 9.60382 8.15018 9.87855 8.65384 10.1533C9.84432 10.8401 10.4396 11.8016 10.4396 12.9921C10.4396 13.9536 10.0733 14.6862 9.34066 15.2357C8.60806 15.7851 7.64652 16.0598 6.36447 16.0598C5.4945 16.0598 4.67033 15.9225 3.98352 15.602C3.25092 15.2815 2.70147 14.8236 2.33517 14.2742C1.96887 13.7247 1.78571 13.0837 1.78571 12.3511H4.4414C4.4414 12.9463 4.57876 13.3584 4.89927 13.6789C5.21979 13.9536 5.67765 14.091 6.36447 14.091C6.82234 14.091 7.14286 13.9994 7.41759 13.7705C7.64653 13.5873 7.78388 13.3584 7.78388 12.9921ZM20.9249 15.9225H18.315V11.3437H14.4231V15.9225H11.7674V4.93348H14.4231V9.2833H18.315V4.93348H20.9249V15.9225ZM25.2747 12.1679V15.9225H22.619V4.93348H26.9689C27.8388 4.93348 28.5714 5.11663 29.2124 5.43715C29.8535 5.71187 30.3571 6.16974 30.7234 6.71919C31.044 7.31443 31.2271 7.95547 31.2271 8.68807C31.2271 9.74118 30.8608 10.5654 30.0824 11.2064C29.304 11.8474 28.2509 12.1679 26.9231 12.1679H25.2747ZM25.2747 10.1533H26.9689C27.4725 10.1533 27.8846 10.0159 28.1593 9.78695C28.4341 9.51223 28.5714 9.14594 28.5714 8.68807C28.5714 8.1844 28.4341 7.77231 28.1593 7.4518C27.8846 7.13128 27.4725 6.99392 27.0147 6.99392H25.2747V10.1533ZM39.4231 11.2522H35.2564V13.8621H40.2015V15.9225H32.6465V4.93348H40.2015V6.99392H35.2564V9.2833H39.4231V11.2522ZM45.6044 4.93348H48.2601V12.4884C48.2601 13.1752 48.0769 13.7705 47.7564 14.3199C47.4359 14.8694 46.978 15.3272 46.4286 15.602C45.8333 15.9225 45.1923 16.0598 44.4597 16.0598C43.2692 16.0598 42.3535 15.7393 41.7125 15.1441C41.0256 14.5489 40.7051 13.7247 40.7051 12.58H43.3608C43.3608 13.0837 43.4524 13.45 43.5897 13.6789C43.7729 13.9078 44.0476 14.0452 44.4597 14.0452C44.826 14.0452 45.1465 13.9078 45.3297 13.6331C45.5128 13.3584 45.6044 12.9463 45.6044 12.4884V4.93348ZM58.5165 6.99392H55.2198V15.9225H52.5641V6.99392H49.359V4.93348H58.5165V6.99392ZM62.4542 15.9225H59.7985V4.93348H62.4542V15.9225ZM67.7198 4.93348L70.1923 12.58L72.619 4.93348H76.0989V15.9225H73.4432V13.3584L73.7179 8.13861L71.0623 15.9225H69.3223L66.6667 8.09283L66.8956 13.3584V15.9225H64.2857V4.93348H67.7198ZM2.42673 32.7723V18.1661H7.64653C9.52381 18.1661 10.989 18.5324 11.9506 19.2192C12.9121 19.906 13.4157 20.9133 13.4157 22.1954C13.4157 22.9738 13.2326 23.6148 12.9121 24.1643C12.5458 24.6679 12.0421 25.08 11.3553 25.3089C12.1337 25.5379 12.7289 25.9042 13.141 26.4536C13.5073 27.0031 13.7363 27.6441 13.7363 28.4683C13.7363 29.8877 13.2784 30.9866 12.3626 31.6734C11.4469 32.406 10.1191 32.7723 8.33334 32.7723H2.42673ZM5.95238 26.5452V30.0709H8.24176C8.88278 30.0709 9.38645 29.9335 9.70696 29.6588C10.0733 29.3382 10.2106 28.9262 10.2106 28.4225C10.2106 27.1862 9.61538 26.591 8.4249 26.5452H5.95238ZM5.95238 24.2558H7.78388C8.56227 24.2558 9.11172 24.1185 9.43224 23.8437C9.75275 23.569 9.89011 23.1569 9.89011 22.6075C9.89011 22.0122 9.75275 21.5544 9.38645 21.2796C9.02015 21.0507 8.4707 20.9133 7.64653 20.9133H5.95238V24.2558ZM27.1062 18.1661V27.7357C27.1062 28.8346 26.8773 29.7503 26.4194 30.5745C25.9615 31.3529 25.3205 31.9481 24.4505 32.3602C23.5806 32.7723 22.5733 33.0012 21.3828 33.0012C19.5971 33.0012 18.2234 32.5434 17.1703 31.6276C16.163 30.6661 15.6593 29.4298 15.6136 27.8273V18.1661H19.185V27.873C19.185 29.4756 19.9634 30.2998 21.3828 30.2998C22.1154 30.2998 22.6648 30.0708 23.0311 29.6588C23.3974 29.2925 23.6264 28.6056 23.6264 27.7357V18.1661H27.1062ZM32.8297 30.0709H38.9652V32.7723H29.304V18.1661H32.8297V30.0709ZM43.956 30.0709H50.0916V32.7723H40.4304V18.1661H43.956V30.0709ZM55.3113 32.7723H51.8315V18.1661H55.3113V32.7723ZM70.1465 25.7668C70.1465 27.1404 69.9176 28.3309 69.5055 29.3382C69.0476 30.3456 68.4066 31.1239 67.6282 31.765L70.0091 33.5965L67.8114 35.4738L64.6978 32.9097C64.3773 32.9554 64.1026 33.0012 63.782 33.0012C62.5458 33.0012 61.4469 32.6807 60.4853 32.1313C59.5238 31.5361 58.7454 30.7119 58.2418 29.6588C57.6923 28.6056 57.4176 27.3694 57.3718 25.95V25.1716C57.3718 23.7522 57.6465 22.4701 58.196 21.417C58.6996 20.3181 59.478 19.4481 60.4396 18.8529C61.4011 18.2577 62.5 17.9829 63.782 17.9829C65.0183 17.9829 66.1172 18.2577 67.0788 18.8529C68.0403 19.4481 68.8187 20.2723 69.3223 21.3712C69.8718 22.4701 70.1465 23.7064 70.1465 25.1258V25.7668ZM66.5751 25.1716C66.5751 23.7064 66.3461 22.6075 65.8425 21.8749C65.3846 21.0965 64.6978 20.7302 63.782 20.7302C62.8205 20.7302 62.1337 21.0965 61.6758 21.8291C61.2179 22.6075 60.989 23.6606 60.9432 25.1258V25.7668C60.9432 27.232 61.2179 28.3309 61.6758 29.1093C62.1337 29.8419 62.8663 30.254 63.782 30.254C64.6978 30.254 65.3846 29.8419 65.8425 29.1093C66.3461 28.3309 66.5751 27.2778 66.5751 25.8584V25.1716ZM75.7326 32.7723H72.207V18.1661H75.7326V32.7723Z" fill="#202648"/>
<rect x="80.4909" y="1.08732" width="43.956" height="37.0879" stroke="#202648" stroke-width="0.915751"/>
<path d="M88.4198 13.572L85.6359 13.572L85.6359 10.5522L91.5812 10.5522L91.5812 28.0105L88.4198 28.0105L88.4198 13.572ZM99.6581 28.3172C95.8833 28.3172 94.0195 25.5805 94.0195 22.2776L94.0195 16.2851C94.0195 12.9822 95.8833 10.2455 99.6581 10.2455C103.268 10.2455 105.273 12.7698 105.273 16.2851L105.273 22.2776C105.273 25.7928 103.268 28.3172 99.6581 28.3172ZM99.6581 25.4154C101.545 25.4154 102.206 23.9998 102.206 22.0181L102.206 16.5446C102.206 14.5629 101.545 13.1473 99.6581 13.1473C97.8414 13.1473 97.0865 14.4213 97.0865 16.5446L97.0865 22.0181C97.0865 24.1414 97.8414 25.4154 99.6581 25.4154ZM112.91 16.3559C116.048 16.3559 118.478 18.7387 118.478 22.2304C118.478 25.7693 115.906 28.3172 112.462 28.3172C109.206 28.3172 106.776 26.0288 106.446 22.9382L109.465 22.9382C109.56 23.7403 110.268 25.439 112.415 25.439C114.326 25.439 115.411 24.1178 115.411 22.254C115.411 20.0835 113.924 19.069 112.344 19.069C111.376 19.069 110.409 19.4465 109.701 20.0835L107.484 18.3141L108.829 10.5522L117.652 10.5522L117.416 13.4304L111.329 13.4304L110.692 16.8041C111.376 16.4738 112.108 16.3559 112.91 16.3559Z" fill="#202648"/>
<path d="M0 39.4537H125V40.3705H0V39.4537Z" fill="#202648"/>
</svg>
