<svg width="160" height="222" viewBox="0 0 160 222" fill="none" xmlns="http://www.w3.org/2000/svg">
<path d="M0 20.2737C0 9.07686 9.07684 0 20.2737 0H138.875C150.072 0 159.148 9.07684 159.148 20.2737V61.8348H0V20.2737Z" fill="#C81F2A"/>
<path d="M74.4263 22.0142L69.2577 22.0142L69.2577 16.4075L80.2958 16.4075L80.2958 48.821L74.4263 48.821L74.4263 22.0142ZM95.2915 49.3904C88.2831 49.3904 84.8228 44.3094 84.8228 38.1771L84.8228 27.0514C84.8228 20.9191 88.2831 15.8381 95.2915 15.8381C101.993 15.8381 105.716 20.5249 105.716 27.0514L105.716 38.1771C105.716 44.7036 101.993 49.3904 95.2915 49.3904ZM95.2915 44.0028C98.7956 44.0028 100.022 41.3746 100.022 37.6953L100.022 27.5332C100.022 23.8538 98.7956 21.2257 95.2915 21.2257C91.9187 21.2257 90.517 23.591 90.517 27.5332L90.517 37.6953C90.517 41.6375 91.9187 44.0028 95.2915 44.0028ZM119.895 27.1828C125.721 27.1828 130.232 31.6068 130.232 38.0895C130.232 44.6598 125.458 49.3904 119.063 49.3904C113.018 49.3904 108.507 45.1416 107.893 39.4036L113.5 39.4036C113.675 40.8928 114.989 44.0466 118.975 44.0466C122.523 44.0466 124.538 41.5937 124.538 38.1333C124.538 34.1035 121.779 32.22 118.844 32.22C117.048 32.22 115.252 32.9209 113.938 34.1035L109.821 30.8184L112.317 16.4075L128.699 16.4075L128.261 21.7514L116.96 21.7514L115.778 28.015C117.048 27.4018 118.406 27.1828 119.895 27.1828Z" fill="white"/>
<path d="M27.482 13.3415L27.0727 13.5016L27.4287 14.4092L27.7846 15.299H23.5136C19.2782 15.299 19.2604 15.299 19.0469 14.8897C18.7622 14.3558 18.78 14.3558 18.3707 14.5694C18.1571 14.694 18.0503 14.8719 18.1037 15.0321C18.1927 15.2456 18.0325 15.299 17.2139 15.299C16.2708 15.299 16.2174 15.3168 16.2174 15.7439C16.2174 16.171 16.253 16.1888 17.3563 16.1888C18.0503 16.1888 18.5486 16.2778 18.6554 16.4023C18.8333 16.6515 31.6996 47.7405 31.6996 47.9363C31.6996 47.9897 31.5039 48.0431 31.2547 48.0431C30.8988 48.0431 30.8098 48.132 30.8098 48.4879C30.8098 48.8795 30.881 48.9328 31.5039 48.9328C32.1623 48.9328 32.2157 48.9684 32.5004 49.7158C32.7852 50.4633 32.8385 50.4989 33.23 50.3209C33.5326 50.1785 33.6393 50.0184 33.5504 49.8404C33.1589 48.8795 33.0165 48.9328 36.2197 48.9328C38.6933 48.9328 39.1738 48.9684 39.1738 49.1998C39.1738 49.4133 39.8678 49.9472 39.939 49.787C40.3127 49.0396 40.3661 49.0218 41.8254 48.9684C43.2312 48.915 43.2668 48.8972 43.2668 48.4879C43.2668 48.0609 43.2312 48.0431 42.0033 48.0431C41.0423 48.0431 40.7576 47.9897 40.8288 47.8117C41.2737 46.655 54.2289 16.5803 54.3535 16.4023C54.4425 16.2956 54.7984 16.1888 55.1187 16.1888C55.6526 16.1888 55.7238 16.1354 55.7238 15.7439C55.7238 15.388 55.6348 15.299 55.2611 15.299C54.8874 15.299 54.834 15.2456 54.923 14.9253C55.012 14.6762 54.9586 14.4804 54.8162 14.3914C54.3891 14.1245 54.1756 14.2135 53.9442 14.7651L53.7307 15.299H46.7192H39.7077V15.7439V16.1888H41.8432C43.0177 16.1888 43.9786 16.2244 43.9786 16.26C43.9786 16.3134 42.3236 20.2996 40.3127 25.1222C38.3018 29.9449 36.5756 34.0912 36.5044 34.3404L36.3799 34.7853L36.1663 34.2514C34.2444 29.3754 29.315 16.7405 29.2616 16.4913C29.1726 16.2244 29.2972 16.1888 30.1692 16.1888C31.1124 16.1888 31.1657 16.171 31.1657 15.7439C31.1657 15.3168 31.1302 15.299 29.9378 15.299H28.7099L28.3184 14.2313C28.1049 13.644 27.9091 13.1635 27.8913 13.1813C27.8913 13.1813 27.6956 13.2525 27.482 13.3415ZM21.4493 17.3455C21.7518 18.2175 21.8052 18.6624 21.734 19.7479C21.6095 21.2606 21.7518 21.4029 20.4883 18.3421C20.0968 17.3989 19.7765 16.5091 19.7765 16.3845C19.7765 16.2422 19.9901 16.1888 20.4172 16.2244C21.04 16.2778 21.0756 16.3312 21.4493 17.3455ZM28.1939 16.4023C28.2651 16.5981 30.9166 23.3605 31.3615 24.4994C31.4505 24.7307 31.4683 24.9087 31.4149 24.9087C31.2013 24.9087 27.6066 16.8294 27.6066 16.349C27.6066 16.0998 28.0871 16.1532 28.1939 16.4023ZM47.342 17.2921C47.0217 17.8616 46.9149 17.3099 47.1997 16.6159C47.4132 16.1354 47.431 16.1354 47.4844 16.4913C47.5378 16.7049 47.4666 17.0608 47.342 17.2921ZM42.466 23.663C42.2525 24.7307 41.9321 25.8163 41.772 26.0654C41.6118 26.3145 40.9178 27.8094 40.2237 29.411C39.156 31.9024 37.8391 34.3048 37.6434 34.109C37.5366 34.0201 42.6618 21.7055 42.7863 21.7055C42.8219 21.7055 42.6796 22.5774 42.466 23.663ZM49.7088 24.6951C49.1216 26.19 45.8472 33.7887 45.8116 33.7353C45.7938 33.7175 46.3633 31.849 47.1107 29.6067C48.3208 25.9408 48.5165 25.4781 49.1038 24.9443C49.8334 24.2858 49.8868 24.268 49.7088 24.6951ZM33.1945 44.2526C33.23 44.5373 33.319 45.0356 33.3902 45.3915C33.4436 45.7652 33.6038 46.1389 33.7461 46.2635C33.9775 46.4414 33.9775 46.5482 33.7461 46.9931C33.6038 47.26 33.4792 47.616 33.4792 47.7761C33.4792 47.9185 33.319 48.0431 33.1411 48.0431C32.8741 48.0431 32.625 47.5982 31.9843 46.0855C31.5395 45.0178 31.1657 44.0924 31.1657 44.0568C31.1657 44.0034 31.5039 43.9323 31.931 43.8967C32.3403 43.8611 32.7674 43.8255 32.8919 43.8077C32.9987 43.7899 33.1411 43.9856 33.1945 44.2526Z" fill="white"/>
<path d="M0 119.618C0 90.506 23.5998 66.9062 52.7116 66.9062H159.148V144.453C159.148 187.281 124.43 222 81.6016 222H0V119.618Z" fill="#C81F2A"/>
<mask id="path-5-outside-1_10_652" maskUnits="userSpaceOnUse" x="24.7805" y="95.3271" width="110" height="100" fill="black">
<rect fill="white" x="24.7805" y="95.3271" width="110" height="100"/>
<path d="M109.257 99.2969C101.599 97.2376 92.6316 98.5161 85.5902 102.578C84.4985 103.208 83.0044 104.399 81.5388 105.648C81.1058 106.016 80.6564 106.408 80.1956 106.815C80.0324 106.623 79.876 106.47 79.7748 106.375C79.5224 106.137 79.2284 105.897 78.9583 105.684C78.3982 105.245 77.6714 104.718 76.9162 104.195C75.4436 103.175 73.5826 101.974 72.3509 101.337C71.3469 100.818 69.2201 100.022 67.6001 99.5009C65.2415 98.7428 62.1069 98.4123 59.2037 98.3833C56.2958 98.3542 53.1476 98.6232 50.7511 99.3271C32.2026 104.775 23.0989 125.009 31.5738 142.297C33.2766 145.771 35.2962 148.303 39.5161 152.658L46.2007 159.557C46.1238 160.35 46.1898 161.169 46.444 161.993C46.8407 163.28 47.5997 164.275 48.3603 165.036C49.7993 166.475 51.8156 167.773 54.4544 167.422C54.4441 167.58 54.4375 167.742 54.4375 167.905C54.4376 169.958 55.4253 171.815 56.4146 173.037C56.947 173.694 57.6107 174.336 58.3892 174.839C59.135 175.32 60.2295 175.83 61.551 175.83C61.9187 175.83 62.2737 175.791 62.6114 175.728C62.6072 175.861 62.6048 175.989 62.6048 176.109C62.6048 177.082 62.7174 178.163 63.16 179.235C63.6264 180.364 64.3484 181.219 65.1735 181.887C65.9425 182.51 66.8998 183.129 68.071 183.461C68.9508 183.71 69.8307 183.762 70.6944 183.646C70.677 183.869 70.6678 184.093 70.6678 184.321C70.6678 190.094 76.5631 193.564 81.6206 190.944C82.4824 190.497 83.5367 189.62 84.3524 188.902C85.2896 188.078 86.347 187.068 87.3173 186.057C89.1708 184.125 90.9273 182.044 91.4812 179.736C91.5049 179.638 91.526 179.539 91.5451 179.441C91.6782 179.548 91.8048 179.649 91.925 179.74C92.0748 179.854 92.2535 179.984 92.4425 180.105C92.5399 180.167 92.9723 180.45 93.5463 180.622L93.5458 180.622C96.9474 181.638 99.9435 179.54 101.455 177.885C102.833 176.375 104.287 173.836 103.968 171.057C104.375 171.101 104.73 171.103 105.018 171.101C106.447 171.09 107.996 170.883 109.44 170.072C110.931 169.234 111.883 167.996 112.56 166.724C112.927 166.034 113.64 164.722 113.642 163.068C113.643 162.573 113.581 162.101 113.475 161.651C113.88 161.692 114.227 161.694 114.497 161.694C119.422 161.694 123.023 157.681 123.024 152.942C123.024 152.393 122.968 151.817 122.795 151.197L125.461 147.578C132.5 138.025 133.771 125.887 128.709 115.363C125.053 107.763 117.454 101.501 109.257 99.2969ZM78.1285 178.645C82.6483 174.049 84.4811 173.365 86.6015 175.486C88.8926 177.777 88.4628 179.57 84.6729 183.519C82.873 185.395 80.7406 187.271 79.9343 187.689C77.2742 189.068 74.3327 187.299 74.3327 184.321C74.3327 182.769 74.8866 181.941 78.1285 178.645ZM70.2352 170.282C74.742 165.877 76.4698 165.354 78.8064 167.691C81.0764 169.961 80.2552 171.993 75.1328 176.785C71.3487 180.325 69.6757 180.817 67.4794 179.039C66.6073 178.333 66.2697 177.515 66.2697 176.109C66.2697 174.371 66.7008 173.738 70.2352 170.282ZM51.7839 102.843C55.598 101.723 62.76 101.795 66.4793 102.99C68.063 103.499 69.9479 104.22 70.6678 104.592C72.6905 105.637 77.4724 108.949 77.474 109.306C77.474 109.481 75.5633 111.503 73.2278 113.8C67.0541 119.873 65.8436 123.225 68.0602 128.109C69.7607 131.857 72.8236 133.9 76.7853 133.927C80.7382 133.954 81.8732 133.336 86.8894 128.427C89.3784 125.992 91.5788 123.999 91.7814 123.998C91.9819 123.998 98.2691 130.09 105.753 137.537C118.465 150.187 119.359 151.199 119.359 152.942C119.359 155.815 117.243 158.029 114.497 158.029C112.396 158.029 112.086 157.77 101.184 146.911C91.6496 137.414 89.8904 135.877 89.1145 136.365C88.6151 136.68 88.1284 137.336 88.0326 137.823C87.9204 138.4 91.7098 142.598 98.8964 149.858C110.499 161.577 110.865 162.109 109.326 165C108.381 166.774 107.234 167.418 104.988 167.436C102.991 167.452 102.55 167.082 91.7599 156.335C82.2255 146.838 80.4664 145.301 79.6905 145.789C77.5833 147.116 78.2841 148.097 89.1503 159.019C95.0537 164.953 100.035 170.321 100.22 170.949C101.068 173.824 97.3233 177.925 94.5939 177.111C93.9599 176.921 88.4945 171.862 82.4478 165.869C73.2974 156.798 71.1352 154.912 69.5588 154.622C67.9232 154.321 67.5822 153.997 67.0591 152.252C66.2754 149.636 63.7787 147.165 61.4851 146.734C57.827 146.048 56.2463 146.803 51.7522 151.381L47.5397 155.673L42.1482 150.108C38.0174 145.845 36.3136 143.641 34.8644 140.684C27.409 125.476 35.373 107.664 51.7839 102.843ZM62.1953 162.122C66.7643 157.553 68.1845 157.069 70.4295 159.314C72.5142 161.399 72.1408 163.139 68.8231 166.805C65.8127 170.131 63.0537 172.165 61.551 172.165C60.0485 172.165 58.1026 169.761 58.1024 167.905C58.1024 166.494 58.778 165.54 62.1953 162.122ZM53.5341 154.457C57.2817 150.648 58.8804 149.687 60.7202 150.14C61.5411 150.342 62.3867 151.189 62.9883 152.412C63.9312 154.33 63.929 154.393 62.839 156.157C62.2295 157.143 60.3114 159.263 58.5774 160.869C54.911 164.263 53.1374 164.63 50.9521 162.444C48.9364 160.429 49.5619 158.494 53.5341 154.457ZM87.4216 105.752C93.6598 102.154 101.629 101.041 108.305 102.836C115.486 104.767 122.219 110.325 125.407 116.952C129.86 126.211 128.772 136.905 122.511 145.404L120.818 147.701L91.7297 118.627L86.6368 123.695C80.6594 129.644 79.7733 130.285 77.4127 130.373C72.206 130.569 68.9504 125.047 71.6837 120.656C73.3968 117.905 84.3693 107.514 87.4216 105.752Z"/>
</mask>
<path d="M109.257 99.2969C101.599 97.2376 92.6316 98.5161 85.5902 102.578C84.4985 103.208 83.0044 104.399 81.5388 105.648C81.1058 106.016 80.6564 106.408 80.1956 106.815C80.0324 106.623 79.876 106.47 79.7748 106.375C79.5224 106.137 79.2284 105.897 78.9583 105.684C78.3982 105.245 77.6714 104.718 76.9162 104.195C75.4436 103.175 73.5826 101.974 72.3509 101.337C71.3469 100.818 69.2201 100.022 67.6001 99.5009C65.2415 98.7428 62.1069 98.4123 59.2037 98.3833C56.2958 98.3542 53.1476 98.6232 50.7511 99.3271C32.2026 104.775 23.0989 125.009 31.5738 142.297C33.2766 145.771 35.2962 148.303 39.5161 152.658L46.2007 159.557C46.1238 160.35 46.1898 161.169 46.444 161.993C46.8407 163.28 47.5997 164.275 48.3603 165.036C49.7993 166.475 51.8156 167.773 54.4544 167.422C54.4441 167.58 54.4375 167.742 54.4375 167.905C54.4376 169.958 55.4253 171.815 56.4146 173.037C56.947 173.694 57.6107 174.336 58.3892 174.839C59.135 175.32 60.2295 175.83 61.551 175.83C61.9187 175.83 62.2737 175.791 62.6114 175.728C62.6072 175.861 62.6048 175.989 62.6048 176.109C62.6048 177.082 62.7174 178.163 63.16 179.235C63.6264 180.364 64.3484 181.219 65.1735 181.887C65.9425 182.51 66.8998 183.129 68.071 183.461C68.9508 183.71 69.8307 183.762 70.6944 183.646C70.677 183.869 70.6678 184.093 70.6678 184.321C70.6678 190.094 76.5631 193.564 81.6206 190.944C82.4824 190.497 83.5367 189.62 84.3524 188.902C85.2896 188.078 86.347 187.068 87.3173 186.057C89.1708 184.125 90.9273 182.044 91.4812 179.736C91.5049 179.638 91.526 179.539 91.5451 179.441C91.6782 179.548 91.8048 179.649 91.925 179.74C92.0748 179.854 92.2535 179.984 92.4425 180.105C92.5399 180.167 92.9723 180.45 93.5463 180.622L93.5458 180.622C96.9474 181.638 99.9435 179.54 101.455 177.885C102.833 176.375 104.287 173.836 103.968 171.057C104.375 171.101 104.73 171.103 105.018 171.101C106.447 171.09 107.996 170.883 109.44 170.072C110.931 169.234 111.883 167.996 112.56 166.724C112.927 166.034 113.64 164.722 113.642 163.068C113.643 162.573 113.581 162.101 113.475 161.651C113.88 161.692 114.227 161.694 114.497 161.694C119.422 161.694 123.023 157.681 123.024 152.942C123.024 152.393 122.968 151.817 122.795 151.197L125.461 147.578C132.5 138.025 133.771 125.887 128.709 115.363C125.053 107.763 117.454 101.501 109.257 99.2969ZM78.1285 178.645C82.6483 174.049 84.4811 173.365 86.6015 175.486C88.8926 177.777 88.4628 179.57 84.6729 183.519C82.873 185.395 80.7406 187.271 79.9343 187.689C77.2742 189.068 74.3327 187.299 74.3327 184.321C74.3327 182.769 74.8866 181.941 78.1285 178.645ZM70.2352 170.282C74.742 165.877 76.4698 165.354 78.8064 167.691C81.0764 169.961 80.2552 171.993 75.1328 176.785C71.3487 180.325 69.6757 180.817 67.4794 179.039C66.6073 178.333 66.2697 177.515 66.2697 176.109C66.2697 174.371 66.7008 173.738 70.2352 170.282ZM51.7839 102.843C55.598 101.723 62.76 101.795 66.4793 102.99C68.063 103.499 69.9479 104.22 70.6678 104.592C72.6905 105.637 77.4724 108.949 77.474 109.306C77.474 109.481 75.5633 111.503 73.2278 113.8C67.0541 119.873 65.8436 123.225 68.0602 128.109C69.7607 131.857 72.8236 133.9 76.7853 133.927C80.7382 133.954 81.8732 133.336 86.8894 128.427C89.3784 125.992 91.5788 123.999 91.7814 123.998C91.9819 123.998 98.2691 130.09 105.753 137.537C118.465 150.187 119.359 151.199 119.359 152.942C119.359 155.815 117.243 158.029 114.497 158.029C112.396 158.029 112.086 157.77 101.184 146.911C91.6496 137.414 89.8904 135.877 89.1145 136.365C88.6151 136.68 88.1284 137.336 88.0326 137.823C87.9204 138.4 91.7098 142.598 98.8964 149.858C110.499 161.577 110.865 162.109 109.326 165C108.381 166.774 107.234 167.418 104.988 167.436C102.991 167.452 102.55 167.082 91.7599 156.335C82.2255 146.838 80.4664 145.301 79.6905 145.789C77.5833 147.116 78.2841 148.097 89.1503 159.019C95.0537 164.953 100.035 170.321 100.22 170.949C101.068 173.824 97.3233 177.925 94.5939 177.111C93.9599 176.921 88.4945 171.862 82.4478 165.869C73.2974 156.798 71.1352 154.912 69.5588 154.622C67.9232 154.321 67.5822 153.997 67.0591 152.252C66.2754 149.636 63.7787 147.165 61.4851 146.734C57.827 146.048 56.2463 146.803 51.7522 151.381L47.5397 155.673L42.1482 150.108C38.0174 145.845 36.3136 143.641 34.8644 140.684C27.409 125.476 35.373 107.664 51.7839 102.843ZM62.1953 162.122C66.7643 157.553 68.1845 157.069 70.4295 159.314C72.5142 161.399 72.1408 163.139 68.8231 166.805C65.8127 170.131 63.0537 172.165 61.551 172.165C60.0485 172.165 58.1026 169.761 58.1024 167.905C58.1024 166.494 58.778 165.54 62.1953 162.122ZM53.5341 154.457C57.2817 150.648 58.8804 149.687 60.7202 150.14C61.5411 150.342 62.3867 151.189 62.9883 152.412C63.9312 154.33 63.929 154.393 62.839 156.157C62.2295 157.143 60.3114 159.263 58.5774 160.869C54.911 164.263 53.1374 164.63 50.9521 162.444C48.9364 160.429 49.5619 158.494 53.5341 154.457ZM87.4216 105.752C93.6598 102.154 101.629 101.041 108.305 102.836C115.486 104.767 122.219 110.325 125.407 116.952C129.86 126.211 128.772 136.905 122.511 145.404L120.818 147.701L91.7297 118.627L86.6368 123.695C80.6594 129.644 79.7733 130.285 77.4127 130.373C72.206 130.569 68.9504 125.047 71.6837 120.656C73.3968 117.905 84.3693 107.514 87.4216 105.752Z" fill="#C81F2A"/>
<path d="M109.257 99.2969C101.599 97.2376 92.6316 98.5161 85.5902 102.578C84.4985 103.208 83.0044 104.399 81.5388 105.648C81.1058 106.016 80.6564 106.408 80.1956 106.815C80.0324 106.623 79.876 106.47 79.7748 106.375C79.5224 106.137 79.2284 105.897 78.9583 105.684C78.3982 105.245 77.6714 104.718 76.9162 104.195C75.4436 103.175 73.5826 101.974 72.3509 101.337C71.3469 100.818 69.2201 100.022 67.6001 99.5009C65.2415 98.7428 62.1069 98.4123 59.2037 98.3833C56.2958 98.3542 53.1476 98.6232 50.7511 99.3271C32.2026 104.775 23.0989 125.009 31.5738 142.297C33.2766 145.771 35.2962 148.303 39.5161 152.658L46.2007 159.557C46.1238 160.35 46.1898 161.169 46.444 161.993C46.8407 163.28 47.5997 164.275 48.3603 165.036C49.7993 166.475 51.8156 167.773 54.4544 167.422C54.4441 167.58 54.4375 167.742 54.4375 167.905C54.4376 169.958 55.4253 171.815 56.4146 173.037C56.947 173.694 57.6107 174.336 58.3892 174.839C59.135 175.32 60.2295 175.83 61.551 175.83C61.9187 175.83 62.2737 175.791 62.6114 175.728C62.6072 175.861 62.6048 175.989 62.6048 176.109C62.6048 177.082 62.7174 178.163 63.16 179.235C63.6264 180.364 64.3484 181.219 65.1735 181.887C65.9425 182.51 66.8998 183.129 68.071 183.461C68.9508 183.71 69.8307 183.762 70.6944 183.646C70.677 183.869 70.6678 184.093 70.6678 184.321C70.6678 190.094 76.5631 193.564 81.6206 190.944C82.4824 190.497 83.5367 189.62 84.3524 188.902C85.2896 188.078 86.347 187.068 87.3173 186.057C89.1708 184.125 90.9273 182.044 91.4812 179.736C91.5049 179.638 91.526 179.539 91.5451 179.441C91.6782 179.548 91.8048 179.649 91.925 179.74C92.0748 179.854 92.2535 179.984 92.4425 180.105C92.5399 180.167 92.9723 180.45 93.5463 180.622L93.5458 180.622C96.9474 181.638 99.9435 179.54 101.455 177.885C102.833 176.375 104.287 173.836 103.968 171.057C104.375 171.101 104.73 171.103 105.018 171.101C106.447 171.09 107.996 170.883 109.44 170.072C110.931 169.234 111.883 167.996 112.56 166.724C112.927 166.034 113.64 164.722 113.642 163.068C113.643 162.573 113.581 162.101 113.475 161.651C113.88 161.692 114.227 161.694 114.497 161.694C119.422 161.694 123.023 157.681 123.024 152.942C123.024 152.393 122.968 151.817 122.795 151.197L125.461 147.578C132.5 138.025 133.771 125.887 128.709 115.363C125.053 107.763 117.454 101.501 109.257 99.2969ZM78.1285 178.645C82.6483 174.049 84.4811 173.365 86.6015 175.486C88.8926 177.777 88.4628 179.57 84.6729 183.519C82.873 185.395 80.7406 187.271 79.9343 187.689C77.2742 189.068 74.3327 187.299 74.3327 184.321C74.3327 182.769 74.8866 181.941 78.1285 178.645ZM70.2352 170.282C74.742 165.877 76.4698 165.354 78.8064 167.691C81.0764 169.961 80.2552 171.993 75.1328 176.785C71.3487 180.325 69.6757 180.817 67.4794 179.039C66.6073 178.333 66.2697 177.515 66.2697 176.109C66.2697 174.371 66.7008 173.738 70.2352 170.282ZM51.7839 102.843C55.598 101.723 62.76 101.795 66.4793 102.99C68.063 103.499 69.9479 104.22 70.6678 104.592C72.6905 105.637 77.4724 108.949 77.474 109.306C77.474 109.481 75.5633 111.503 73.2278 113.8C67.0541 119.873 65.8436 123.225 68.0602 128.109C69.7607 131.857 72.8236 133.9 76.7853 133.927C80.7382 133.954 81.8732 133.336 86.8894 128.427C89.3784 125.992 91.5788 123.999 91.7814 123.998C91.9819 123.998 98.2691 130.09 105.753 137.537C118.465 150.187 119.359 151.199 119.359 152.942C119.359 155.815 117.243 158.029 114.497 158.029C112.396 158.029 112.086 157.77 101.184 146.911C91.6496 137.414 89.8904 135.877 89.1145 136.365C88.6151 136.68 88.1284 137.336 88.0326 137.823C87.9204 138.4 91.7098 142.598 98.8964 149.858C110.499 161.577 110.865 162.109 109.326 165C108.381 166.774 107.234 167.418 104.988 167.436C102.991 167.452 102.55 167.082 91.7599 156.335C82.2255 146.838 80.4664 145.301 79.6905 145.789C77.5833 147.116 78.2841 148.097 89.1503 159.019C95.0537 164.953 100.035 170.321 100.22 170.949C101.068 173.824 97.3233 177.925 94.5939 177.111C93.9599 176.921 88.4945 171.862 82.4478 165.869C73.2974 156.798 71.1352 154.912 69.5588 154.622C67.9232 154.321 67.5822 153.997 67.0591 152.252C66.2754 149.636 63.7787 147.165 61.4851 146.734C57.827 146.048 56.2463 146.803 51.7522 151.381L47.5397 155.673L42.1482 150.108C38.0174 145.845 36.3136 143.641 34.8644 140.684C27.409 125.476 35.373 107.664 51.7839 102.843ZM62.1953 162.122C66.7643 157.553 68.1845 157.069 70.4295 159.314C72.5142 161.399 72.1408 163.139 68.8231 166.805C65.8127 170.131 63.0537 172.165 61.551 172.165C60.0485 172.165 58.1026 169.761 58.1024 167.905C58.1024 166.494 58.778 165.54 62.1953 162.122ZM53.5341 154.457C57.2817 150.648 58.8804 149.687 60.7202 150.14C61.5411 150.342 62.3867 151.189 62.9883 152.412C63.9312 154.33 63.929 154.393 62.839 156.157C62.2295 157.143 60.3114 159.263 58.5774 160.869C54.911 164.263 53.1374 164.63 50.9521 162.444C48.9364 160.429 49.5619 158.494 53.5341 154.457ZM87.4216 105.752C93.6598 102.154 101.629 101.041 108.305 102.836C115.486 104.767 122.219 110.325 125.407 116.952C129.86 126.211 128.772 136.905 122.511 145.404L120.818 147.701L91.7297 118.627L86.6368 123.695C80.6594 129.644 79.7733 130.285 77.4127 130.373C72.206 130.569 68.9504 125.047 71.6837 120.656C73.3968 117.905 84.3693 107.514 87.4216 105.752Z" stroke="white" stroke-width="5.23558" mask="url(#path-5-outside-1_10_652)"/>
<path d="M108.783 101.069C101.616 99.1416 93.1478 100.338 86.5082 104.168C85.5808 104.703 84.205 105.789 82.7299 107.045C81.5615 108.041 80.2619 109.204 78.9545 110.417C78.9811 110.378 79.0091 110.334 79.0365 110.287C79.0679 110.233 79.1186 110.141 79.1664 110.024C79.1952 109.953 79.2828 109.737 79.3041 109.441L79.308 109.309L79.3011 109.14C79.2666 108.76 79.1242 108.488 79.0717 108.391C78.9904 108.242 78.9031 108.127 78.848 108.059C78.7356 107.92 78.614 107.799 78.5219 107.712C78.3283 107.53 78.0836 107.329 77.8285 107.128C77.3084 106.72 76.6142 106.217 75.8744 105.705C74.4136 104.693 72.6327 103.547 71.5111 102.967L71.1371 102.787C70.154 102.336 68.4437 101.7 67.0424 101.249C64.9333 100.571 62.0055 100.246 59.1879 100.218C56.368 100.19 53.4216 100.455 51.2699 101.087C33.7902 106.222 25.2559 125.246 33.2211 141.494C34.797 144.709 36.6591 147.077 40.8344 151.386L46.226 156.951L47.5336 158.3L48.85 156.959L49.5463 156.249C48.9509 157.075 48.5082 157.868 48.2562 158.648C47.9576 159.572 47.9082 160.518 48.1976 161.456C48.4773 162.364 49.0264 163.11 49.6586 163.743C50.9689 165.053 52.5531 165.966 54.5824 165.546C55.8276 165.289 57.0548 164.548 58.3285 163.52C57.9476 163.954 57.6309 164.347 57.3734 164.71C56.5915 165.815 56.2719 166.77 56.2719 167.908C56.2719 169.398 57.0094 170.859 57.8412 171.886C58.276 172.423 58.8 172.923 59.3861 173.302C59.9558 173.67 60.7047 174 61.5531 174C62.3084 174 63.0429 173.755 63.6781 173.456C64.336 173.148 65.0213 172.719 65.7113 172.21C65.8511 172.107 65.9914 171.999 66.1342 171.887C65.8525 172.216 65.6124 172.52 65.4144 172.811C65.0482 173.349 64.7834 173.886 64.6244 174.481C64.4693 175.061 64.4398 175.608 64.4398 176.112C64.4398 176.95 64.5378 177.768 64.8558 178.539C65.1857 179.337 65.698 179.955 66.3285 180.465C66.9876 180.999 67.7245 181.46 68.5726 181.701C69.4551 181.951 70.342 181.928 71.2308 181.666C72.3413 181.339 73.4599 180.63 74.6537 179.656C74.1752 180.198 73.7906 180.676 73.4935 181.121C72.7377 182.251 72.5024 183.205 72.5023 184.324C72.5023 188.699 76.9208 191.318 80.7797 189.319C81.4121 188.991 82.3067 188.267 83.1439 187.53C84.0419 186.739 85.0623 185.765 85.9974 184.79C87.8716 182.837 89.2772 181.079 89.7015 179.311C89.9355 178.336 89.8704 177.384 89.5013 176.469C89.1507 175.6 88.563 174.856 87.8998 174.193C87.2559 173.549 86.4894 172.969 85.5472 172.686C84.5603 172.39 83.5773 172.478 82.6263 172.832C81.7365 173.164 80.8135 173.759 79.8217 174.566C80.5594 173.659 81.1098 172.805 81.4427 171.981C81.8443 170.987 81.968 169.953 81.6781 168.909C81.3998 167.906 80.7935 167.087 80.1039 166.398L79.849 166.15C79.2417 165.58 78.5576 165.077 77.7621 164.778C76.795 164.414 75.8038 164.405 74.806 164.706C73.8648 164.991 72.9529 165.541 72.0414 166.233C71.7248 166.473 71.3974 166.741 71.057 167.033C72.2666 165.588 73.1516 164.224 73.4457 162.853C73.6432 161.932 73.5741 161.031 73.2269 160.167C72.9945 159.589 72.655 159.072 72.2601 158.601C74.0906 160.225 76.819 162.87 81.1595 167.172C84.1942 170.18 87.0877 172.959 89.308 175.014C90.4163 176.04 91.3684 176.896 92.0912 177.513C92.4504 177.82 92.7703 178.083 93.0336 178.283C93.1639 178.381 93.3004 178.48 93.433 178.565C93.5199 178.621 93.7658 178.777 94.0726 178.869C96.4556 179.58 98.7626 178.121 100.104 176.652C101.472 175.153 102.666 172.76 101.98 170.433L101.902 170.215C101.817 170.012 101.718 169.857 101.676 169.792C101.592 169.66 101.494 169.525 101.397 169.396C101.2 169.136 100.939 168.82 100.637 168.466C100.029 167.755 99.1855 166.819 98.1752 165.73C96.1511 163.549 93.4145 160.707 90.4515 157.729C88.6237 155.892 87.101 154.35 85.8383 153.052C87.1254 154.313 88.6525 155.827 90.4691 157.636C95.8292 162.975 98.7103 165.83 100.495 167.329C101.392 168.081 102.146 168.609 102.906 168.919C103.529 169.174 104.076 169.247 104.552 169.266L105.005 169.271C106.281 169.261 107.48 169.075 108.544 168.477C109.497 167.942 110.18 167.17 110.721 166.262L110.945 165.865C111.321 165.159 111.81 164.215 111.812 163.068C111.813 161.884 111.31 160.807 110.55 159.704C109.082 157.572 105.929 154.357 100.201 148.571C99.4281 147.79 98.6969 147.045 98.0052 146.338C98.5966 146.925 99.226 147.548 99.8929 148.212C105.306 153.604 108.186 156.463 109.968 157.952C110.865 158.701 111.623 159.225 112.397 159.528C113.229 159.854 113.933 159.864 114.498 159.864C118.334 159.864 121.193 156.75 121.193 152.945C121.193 152.267 121.089 151.574 120.645 150.729C120.309 150.089 119.791 149.39 119.062 148.538L119.525 149L121.032 150.506L122.295 148.791L123.988 146.494H123.989C130.638 137.467 131.818 126.051 127.06 116.16C123.638 109.046 116.472 103.136 108.783 101.069ZM63.7455 150.182C64.4766 150.962 65.039 151.889 65.306 152.781C65.5587 153.624 65.8815 154.598 66.6332 155.311C67.1077 155.761 67.6585 156.018 68.2006 156.185C67.6668 156.163 67.1299 156.248 66.5941 156.431C65.6933 156.738 64.8215 157.311 63.9467 158.015C63.7583 158.167 63.5654 158.329 63.3666 158.501C63.7172 158.079 64.0196 157.692 64.2445 157.361L64.3998 157.122C64.6583 156.704 64.9162 156.287 65.1029 155.905C65.3024 155.497 65.4858 155.005 65.5092 154.418C65.5323 153.836 65.3913 153.331 65.2308 152.91C65.0788 152.51 64.8587 152.064 64.6342 151.607C64.3946 151.12 64.0971 150.631 63.7455 150.182ZM72.3031 130.685C72.7522 131.006 73.2372 131.284 73.7543 131.511C73.2369 131.295 72.753 131.02 72.3031 130.685ZM94.1556 123.641C93.8274 123.335 93.5532 123.084 93.3461 122.902C93.2357 122.805 93.124 122.709 93.0258 122.631C92.9804 122.596 92.9069 122.539 92.8217 122.484C92.7813 122.457 92.7017 122.407 92.598 122.357C92.5683 122.342 92.237 122.167 91.7836 122.167L91.5492 122.183C91.3326 122.21 91.1737 122.268 91.1088 122.292C90.9924 122.337 90.8996 122.385 90.8431 122.415C90.7291 122.478 90.6306 122.544 90.5638 122.591C90.4237 122.69 90.2701 122.811 90.1205 122.934C89.8662 123.143 89.5511 123.419 89.1927 123.741L91.7299 121.216L94.1556 123.641Z" fill="white" stroke="#C81F2A" stroke-width="3.6649"/>
</svg>
