<svg width="857" height="808" viewBox="0 0 857 808" fill="none" xmlns="http://www.w3.org/2000/svg">
<path opacity="0.34" d="M612.639 3.48639L621.518 6.9624L613.797 26.66L606.077 45.9714H698.725C790.602 45.9714 790.988 45.9714 795.62 37.0881C801.797 25.5013 801.411 25.5013 810.29 30.136C814.922 32.8397 817.238 36.7019 816.08 40.178C814.15 44.8127 817.624 45.9714 835.382 45.9714C855.842 45.9714 857 46.3576 857 55.6271C857 64.8965 856.228 65.2827 832.294 65.2827C817.238 65.2827 806.429 67.2139 804.113 69.9175C800.253 75.3246 521.149 750.063 521.149 754.312C521.149 755.47 525.395 756.629 530.8 756.629C538.52 756.629 540.45 758.56 540.45 766.285C540.45 774.782 538.906 775.94 525.395 775.94C511.112 775.94 509.954 776.713 503.777 792.934C497.6 809.156 496.442 809.928 487.95 806.066C481.387 802.976 479.071 799.5 481.001 795.638C489.494 774.782 492.582 775.94 423.096 775.94C369.436 775.94 359.013 776.713 359.013 781.734C359.013 786.369 343.958 797.955 342.414 794.479C334.307 778.258 333.149 777.872 301.494 776.713C270.997 775.554 270.225 775.168 270.225 766.285C270.225 757.015 270.997 756.629 297.634 756.629C318.48 756.629 324.656 755.47 323.112 751.608C313.461 726.503 32.427 73.7797 29.7247 69.9175C27.7946 67.6001 20.0739 65.2827 13.1252 65.2827C1.54413 65.2827 0 64.124 0 55.6271C0 47.9025 1.93018 45.9714 10.0369 45.9714C18.1437 45.9714 19.3018 44.8127 17.3716 37.8606C15.4414 32.4534 16.5995 28.2049 19.6878 26.2737C28.9527 20.4803 33.5851 22.4115 38.6036 34.3846L43.236 45.9714H195.334H347.432V55.6271V65.2827H301.108C275.63 65.2827 254.784 66.0552 254.784 66.8276C254.784 67.9863 290.685 154.501 334.307 259.169C377.929 363.836 415.375 453.827 416.919 459.234L419.621 468.89L424.254 457.303C465.945 351.477 572.877 77.2558 574.036 71.8486C575.966 66.0552 573.264 65.2827 554.348 65.2827C533.888 65.2827 532.73 64.8965 532.73 55.6271C532.73 46.3576 533.502 45.9714 559.366 45.9714H586.003L594.495 22.7977C599.128 10.0522 603.374 -0.375916 603.76 0.0103149C603.76 0.0103149 608.007 1.5553 612.639 3.48639ZM743.505 90.3875C736.943 109.313 735.785 118.968 737.329 142.528C740.031 175.357 736.943 178.447 764.351 112.016C772.844 91.5462 779.793 72.2348 779.793 69.5312C779.793 66.4414 775.16 65.2827 765.895 66.0552C752.384 67.2139 751.612 68.3726 743.505 90.3875ZM597.198 69.9175C595.654 74.166 538.134 220.932 528.483 245.651C526.553 250.672 526.167 254.534 527.325 254.534C531.958 254.534 609.937 79.1869 609.937 68.7587C609.937 63.3516 599.514 64.5103 597.198 69.9175ZM181.823 89.2288C188.772 101.588 191.088 89.6151 184.911 74.5522C180.279 64.124 179.893 64.1241 178.735 71.8486C177.577 76.4833 179.121 84.2078 181.823 89.2288ZM287.597 227.498C292.229 250.672 299.178 274.232 302.652 279.639C306.127 285.046 321.182 317.489 336.237 352.249C359.4 406.321 387.966 458.462 392.213 454.213C394.529 452.282 283.35 185.013 280.648 185.013C279.876 185.013 282.964 203.938 287.597 227.498ZM130.48 249.899C143.219 282.342 214.25 447.261 215.022 446.103C215.408 445.716 203.055 405.163 186.841 356.498C160.591 276.935 156.345 266.893 143.605 255.306C127.778 241.016 126.62 240.63 130.48 249.899ZM488.722 674.363C487.95 680.542 486.019 691.357 484.475 699.081C483.317 707.192 479.843 715.303 476.754 718.006C471.736 721.869 471.736 724.186 476.754 733.842C479.843 739.635 482.545 747.36 482.545 750.836C482.545 753.926 486.019 756.629 489.88 756.629C495.67 756.629 501.075 746.973 514.972 714.144C524.623 690.971 532.73 670.887 532.73 670.114C532.73 668.956 525.395 667.411 516.13 666.638C507.251 665.866 497.986 665.093 495.284 664.707C492.968 664.321 489.88 668.569 488.722 674.363Z" fill="url(#paint0_linear_2_15878)"/>
<defs>
<linearGradient id="paint0_linear_2_15878" x1="857" y1="374.805" x2="-0.0325016" y2="368.745" gradientUnits="userSpaceOnUse">
<stop stop-color="#F6F8FF"/>
<stop offset="1" stop-color="#CED3E7"/>
</linearGradient>
</defs>
</svg>
